<svg xmlns="http://www.w3.org/2000/svg" width="109" height="109" viewBox="0 0 109 109" fill="none">
  <circle cx="54.5997" cy="54.5001" r="53.6251" stroke="black"/>
  <mask id="mask0_897_570" style="mask-type:alpha" maskUnits="userSpaceOnUse" x="38" y="38" width="33" height="32">
    <rect x="38.1128" y="38.0127" width="31.9754" height="31.9754" fill="#D9D9D9"/>
  </mask>
  <g mask="url(#mask0_897_570)">
    <path d="M42.0883 65.9913C41.3848 65.9913 40.7826 65.7304 40.2817 65.2086C39.7807 64.6868 39.5303 64.0595 39.5303 63.3267V47.3391C39.5303 46.6063 39.7807 45.979 40.2817 45.4572C40.7826 44.9354 41.3848 44.6744 42.0883 44.6744H46.1172L48.4834 42.0098H56.1575V44.6744H49.6025L47.2683 47.3391H42.0883V63.3267H62.5525V51.336H65.1106V63.3267C65.1106 64.0595 64.8601 64.6868 64.3591 65.2086C63.8582 65.7304 63.256 65.9913 62.5525 65.9913H42.0883ZM62.5525 47.3391V44.6744H59.9945V42.0098H62.5525V39.3452H65.1106V42.0098H67.6686V44.6744H65.1106V47.3391H62.5525ZM52.3204 61.3283C53.9192 61.3283 55.2781 60.7454 56.3973 59.5796C57.5164 58.4139 58.076 56.9983 58.076 55.3329C58.076 53.6675 57.5164 52.2519 56.3973 51.0862C55.2781 49.9204 53.9192 49.3375 52.3204 49.3375C50.7217 49.3375 49.3627 49.9204 48.2436 51.0862C47.1244 52.2519 46.5649 53.6675 46.5649 55.3329C46.5649 56.9983 47.1244 58.4139 48.2436 59.5796C49.3627 60.7454 50.7217 61.3283 52.3204 61.3283ZM52.3204 58.6637C51.4251 58.6637 50.6684 58.3417 50.0502 57.6977C49.432 57.0538 49.1229 56.2655 49.1229 55.3329C49.1229 54.4003 49.432 53.612 50.0502 52.9681C50.6684 52.3241 51.4251 52.0021 52.3204 52.0021C53.2157 52.0021 53.9725 52.3241 54.5907 52.9681C55.2089 53.612 55.518 54.4003 55.518 55.3329C55.518 56.2655 55.2089 57.0538 54.5907 57.6977C53.9725 58.3417 53.2157 58.6637 52.3204 58.6637Z" fill="#1C1B1F"/>
  </g>
</svg>