<svg width="220" height="220" viewBox="0 0 220 220" fill="none" xmlns="http://www.w3.org/2000/svg">
<g id="11">
<path id="Vector" d="M205.86 142.815H136.574V146.78H205.86V142.815Z" fill="white"/>
<path id="Vector_2" d="M205.861 147.073H136.574C136.496 147.073 136.423 147.042 136.368 146.987C136.312 146.932 136.281 146.858 136.281 146.78V142.816C136.281 142.739 136.312 142.664 136.368 142.609C136.423 142.554 136.496 142.523 136.574 142.523H205.861C205.938 142.523 206.013 142.554 206.068 142.609C206.123 142.664 206.154 142.739 206.154 142.816V146.78C206.154 146.858 206.123 146.932 206.068 146.987C206.013 147.042 205.938 147.073 205.861 147.073ZM136.867 146.478H205.568V143.108H136.867V146.478Z" fill="#313131"/>
<path id="Vector_3" d="M183.048 124.2C180.862 124.2 179.754 121.524 179.754 116.25C179.754 113.804 181.965 111.813 184.688 111.813C187.41 111.813 189.619 113.804 189.619 116.25C189.619 119.666 185.874 124.2 183.048 124.2ZM184.688 113.636C182.971 113.636 181.575 114.807 181.575 116.25C181.575 120.746 182.455 122.377 183.048 122.377C184.726 122.377 187.8 118.773 187.8 116.25C187.8 114.807 186.403 113.636 184.688 113.636Z" fill="#FFFF00"/>
<path id="Vector_4" d="M160.992 124.199C159.092 124.199 157.3 122.229 156.618 121.387C155.241 119.68 154.418 117.761 154.418 116.257C154.418 113.811 156.633 111.819 159.352 111.819C162.072 111.819 164.287 113.811 164.287 116.257C164.287 121.524 163.185 124.199 160.992 124.199ZM159.352 113.636C157.637 113.636 156.241 114.807 156.241 116.25C156.241 118.654 159.397 122.376 160.992 122.376C161.582 122.376 162.464 120.737 162.464 116.25C162.464 114.807 161.076 113.636 159.352 113.636Z" fill="#FFFF00"/>
<path id="Vector_5" d="M183.048 124.493C180.668 124.493 179.461 121.718 179.461 116.25C179.461 113.643 181.804 111.52 184.688 111.52C187.573 111.52 189.913 113.643 189.913 116.25C189.913 119.87 186.064 124.493 183.048 124.493ZM184.688 112.106C182.127 112.106 180.047 113.966 180.047 116.25C180.047 121.33 181.057 123.907 183.048 123.907C185.688 123.907 189.327 119.469 189.327 116.25C189.327 113.966 187.247 112.106 184.688 112.106ZM183.048 122.67C181.975 122.67 181.282 120.149 181.282 116.25C181.282 114.648 182.809 113.343 184.688 113.343C186.567 113.343 188.092 114.648 188.092 116.25C188.092 118.959 184.873 122.67 183.048 122.67ZM184.688 113.928C183.132 113.928 181.877 114.968 181.877 116.25C181.877 121.07 182.863 122.084 183.048 122.084C184.583 122.084 187.499 118.596 187.499 116.25C187.507 114.968 186.241 113.928 184.688 113.928Z" fill="#313131"/>
<path id="Vector_6" d="M160.992 124.493C158.966 124.493 157.098 122.445 156.391 121.567C154.985 119.806 154.125 117.818 154.125 116.25C154.125 113.643 156.468 111.52 159.352 111.52C162.237 111.52 164.591 113.643 164.591 116.255C164.591 121.718 163.372 124.493 160.992 124.493ZM159.352 112.106C156.794 112.106 154.711 113.966 154.711 116.25C154.711 117.689 155.51 119.531 156.848 121.198C157.504 122.011 159.218 123.907 160.992 123.907C162.984 123.907 163.994 121.33 163.994 116.25C163.994 113.966 161.911 112.106 159.352 112.106ZM160.992 122.67C159.256 122.67 155.948 118.832 155.948 116.25C155.948 114.648 157.475 113.343 159.352 113.343C161.229 113.343 162.757 114.648 162.757 116.25C162.757 120.149 162.065 122.67 160.992 122.67ZM159.352 113.928C157.799 113.928 156.54 114.968 156.54 116.25C156.54 118.48 159.542 122.084 160.992 122.084C161.186 122.084 162.164 121.07 162.164 116.25C162.171 114.968 160.907 113.928 159.352 113.928Z" fill="#313131"/>
<path id="Vector_7" d="M182.886 141.87V142.807H161.154V141.87C161.154 141.277 161.389 140.709 161.808 140.289C162.228 139.87 162.796 139.635 163.389 139.635H169.799V131.864C163.862 130.42 159.352 123.291 159.352 114.716C159.347 112.565 159.641 110.423 160.226 108.353H183.815C184.399 110.423 184.693 112.565 184.686 114.716C184.686 123.291 180.178 130.413 174.241 131.861V139.635H180.652C181.244 139.635 181.813 139.87 182.232 140.289C182.651 140.709 182.886 141.277 182.886 141.87Z" fill="#FFFF00"/>
<path id="Vector_8" d="M182.886 143.109H161.153C161.115 143.11 161.078 143.102 161.041 143.088C161.006 143.073 160.973 143.052 160.946 143.024C160.918 142.997 160.898 142.964 160.882 142.929C160.868 142.893 160.86 142.855 160.861 142.817V141.88C160.861 141.209 161.128 140.566 161.602 140.093C162.076 139.619 162.718 139.352 163.389 139.351H169.511V132.091C163.443 130.466 159.064 123.211 159.064 114.716C159.057 112.536 159.356 110.367 159.949 108.27C159.967 108.21 160.004 108.156 160.055 108.118C160.105 108.08 160.168 108.06 160.23 108.06H183.814C183.877 108.06 183.939 108.08 183.99 108.118C184.041 108.156 184.077 108.21 184.096 108.27C184.686 110.368 184.981 112.537 184.974 114.716C184.974 123.209 180.595 130.466 174.53 132.089V139.351H180.646C181.317 139.352 181.96 139.619 182.433 140.093C182.907 140.566 183.174 141.209 183.175 141.88V142.817C183.175 142.894 183.144 142.967 183.09 143.022C183.037 143.077 182.963 143.108 182.886 143.109ZM161.446 142.524H182.593V141.87C182.593 141.355 182.388 140.861 182.024 140.497C181.66 140.133 181.166 139.928 180.652 139.927H174.241C174.163 139.927 174.089 139.896 174.034 139.841C173.979 139.787 173.948 139.712 173.948 139.635V131.861C173.948 131.796 173.969 131.732 174.01 131.68C174.05 131.629 174.107 131.593 174.171 131.577C180.094 130.136 184.393 123.047 184.393 114.708C184.399 112.658 184.13 110.617 183.592 108.638H160.446C159.909 110.617 159.639 112.658 159.645 114.708C159.645 123.04 163.944 130.132 169.866 131.577C169.932 131.591 169.992 131.628 170.034 131.679C170.077 131.731 170.1 131.796 170.101 131.864V139.635C170.101 139.712 170.071 139.787 170.016 139.841C169.961 139.896 169.886 139.927 169.808 139.927H163.389C162.874 139.928 162.38 140.133 162.016 140.497C161.652 140.861 161.447 141.355 161.446 141.87V142.524Z" fill="#313131"/>
<path id="Vector_9" d="M175.195 125.354H169.598C169.52 125.354 169.445 125.323 169.39 125.268C169.335 125.214 169.304 125.139 169.304 125.062V123.45C169.304 123.372 169.335 123.297 169.39 123.242C169.445 123.188 169.52 123.157 169.598 123.157H171.385V116.744L171.371 116.498L169.349 117.59C169.309 117.612 169.264 117.624 169.218 117.625C169.172 117.626 169.126 117.617 169.084 117.597C169.043 117.577 169.007 117.547 168.979 117.511C168.95 117.474 168.931 117.431 168.923 117.386L168.555 115.465C168.544 115.404 168.553 115.341 168.58 115.285C168.606 115.229 168.65 115.183 168.705 115.154L171.751 113.514C171.794 113.492 171.841 113.481 171.889 113.481H173.494C173.532 113.48 173.571 113.488 173.607 113.502C173.642 113.517 173.675 113.538 173.701 113.566C173.729 113.593 173.751 113.626 173.765 113.661C173.78 113.697 173.787 113.735 173.787 113.774V123.145H175.193C175.271 123.145 175.344 123.175 175.399 123.231C175.455 123.286 175.486 123.36 175.486 123.438V125.05C175.487 125.09 175.48 125.128 175.467 125.165C175.453 125.201 175.432 125.235 175.404 125.264C175.377 125.293 175.345 125.314 175.309 125.331C175.273 125.346 175.234 125.354 175.195 125.354ZM169.891 124.769H174.9V123.752H173.494C173.416 123.752 173.341 123.721 173.286 123.666C173.231 123.611 173.201 123.537 173.201 123.459V114.088H171.957L169.162 115.583L169.412 116.899L171.486 115.779C171.529 115.755 171.579 115.743 171.628 115.743C171.677 115.743 171.726 115.755 171.77 115.779C171.812 115.802 171.847 115.836 171.874 115.877C171.9 115.919 171.915 115.965 171.92 116.013L171.962 116.737V123.459C171.962 123.537 171.931 123.611 171.876 123.666C171.821 123.721 171.746 123.752 171.669 123.752H169.881L169.891 124.769Z" fill="#313131"/>
<path id="Vector_10" d="M174.241 139.918H169.789C169.711 139.918 169.638 139.887 169.582 139.832C169.527 139.778 169.496 139.703 169.496 139.625C169.496 139.547 169.527 139.473 169.582 139.418C169.638 139.363 169.711 139.332 169.789 139.332H174.241C174.319 139.332 174.393 139.363 174.448 139.418C174.503 139.473 174.534 139.547 174.534 139.625C174.534 139.703 174.503 139.778 174.448 139.832C174.393 139.887 174.319 139.918 174.241 139.918Z" fill="#313131"/>
<path id="Vector_11" d="M179.754 77.9508C189.36 77.9508 197.147 70.1634 197.147 60.5571C197.147 50.951 189.36 43.1636 179.754 43.1636C170.147 43.1636 162.36 50.951 162.36 60.5571C162.36 70.1634 170.147 77.9508 179.754 77.9508Z" fill="white"/>
<path id="Vector_12" d="M179.754 78.2436C176.256 78.2436 172.836 77.2062 169.928 75.2628C167.019 73.3194 164.753 70.5572 163.414 67.3253C162.075 64.0936 161.725 60.5374 162.408 57.1066C163.09 53.6757 164.774 50.5243 167.248 48.0508C169.722 45.5774 172.872 43.8929 176.303 43.2105C179.734 42.528 183.29 42.8782 186.522 44.2169C189.754 45.5555 192.517 47.8224 194.46 50.731C196.403 53.6395 197.44 57.059 197.44 60.5571C197.435 65.2461 195.57 69.7414 192.255 73.0571C188.939 76.3727 184.444 78.238 179.754 78.2436ZM179.754 43.4563C176.371 43.4563 173.065 44.4594 170.252 46.3387C167.44 48.218 165.247 50.8891 163.953 54.0143C162.658 57.1395 162.32 60.5784 162.979 63.896C163.639 67.2137 165.269 70.2612 167.66 72.6531C170.052 75.0451 173.1 76.6739 176.417 77.3338C179.735 77.9938 183.174 77.6551 186.3 76.3605C189.424 75.0661 192.096 72.8739 193.974 70.0613C195.855 67.2488 196.858 63.9421 196.858 60.5594C196.853 56.0247 195.05 51.677 191.843 48.4705C188.636 45.264 184.289 43.4607 179.754 43.4563Z" fill="#313131"/>
<path id="Vector_13" d="M179.754 76.3694C188.487 76.3694 195.566 69.2901 195.566 60.5573C195.566 51.8245 188.487 44.7451 179.754 44.7451C171.021 44.7451 163.942 51.8245 163.942 60.5573C163.942 69.2901 171.021 76.3694 179.754 76.3694Z" fill="white"/>
<path id="Vector_14" d="M179.754 76.6597C176.569 76.6597 173.455 75.7152 170.807 73.9456C168.159 72.1759 166.094 69.6606 164.875 66.7179C163.655 63.775 163.337 60.5369 163.958 57.4128C164.58 54.2887 166.114 51.419 168.366 49.1667C170.618 46.9144 173.488 45.3806 176.612 44.7592C179.736 44.1378 182.974 44.4567 185.918 45.6756C188.86 46.8945 191.375 48.9587 193.145 51.6072C194.915 54.2557 195.859 57.3694 195.859 60.5546C195.854 64.8245 194.155 68.9179 191.136 71.9372C188.117 74.9564 184.024 76.6548 179.754 76.6597ZM179.754 45.0307C176.685 45.0326 173.686 45.9442 171.135 47.6502C168.584 49.3563 166.597 51.7803 165.424 54.6159C164.25 57.4514 163.944 60.5712 164.543 63.5808C165.143 66.5904 166.62 69.3549 168.791 71.5247C170.961 73.6943 173.725 75.172 176.735 75.7709C179.745 76.3698 182.864 76.0629 185.7 74.8891C188.535 73.7153 190.958 71.7271 192.664 69.1762C194.371 66.6252 195.282 63.6257 195.283 60.5571C195.28 56.4395 193.643 52.4915 190.731 49.5801C187.82 46.6688 183.872 45.0326 179.754 45.0307Z" fill="#313131"/>
<path id="Vector_15" d="M179.754 75.5516C179.676 75.5516 179.601 75.5208 179.547 75.4658C179.492 75.4109 179.461 75.3364 179.461 75.2588V71.3133C179.461 71.2356 179.492 71.1612 179.547 71.1062C179.601 71.0513 179.676 71.0205 179.754 71.0205C179.832 71.0205 179.907 71.0513 179.961 71.1062C180.016 71.1612 180.047 71.2356 180.047 71.3133V75.2541C180.047 75.2929 180.04 75.3314 180.026 75.3676C180.012 75.4037 179.99 75.4365 179.962 75.4641C179.935 75.4919 179.903 75.5139 179.867 75.5289C179.831 75.5439 179.792 75.5516 179.754 75.5516Z" fill="#313131"/>
<path id="Vector_16" d="M179.754 50.1854C179.676 50.1854 179.601 50.1546 179.547 50.0997C179.492 50.0447 179.461 49.9703 179.461 49.8926V45.9355C179.461 45.8578 179.492 45.7833 179.547 45.7284C179.601 45.6734 179.676 45.6426 179.754 45.6426C179.832 45.6426 179.907 45.6734 179.961 45.7284C180.016 45.7833 180.047 45.8578 180.047 45.9355V49.8809C180.048 49.9203 180.042 49.9597 180.028 49.9965C180.014 50.0334 179.992 50.0671 179.966 50.0955C179.938 50.1241 179.905 50.1467 179.869 50.162C179.833 50.1775 179.793 50.1855 179.754 50.1854Z" fill="#313131"/>
<path id="Vector_17" d="M194.415 60.8899H190.47C190.392 60.8899 190.318 60.8591 190.263 60.8041C190.209 60.7492 190.177 60.6747 190.177 60.597C190.177 60.5194 190.209 60.4449 190.263 60.3899C190.318 60.335 190.392 60.3042 190.47 60.3042H194.415C194.493 60.3042 194.568 60.335 194.623 60.3899C194.678 60.4449 194.708 60.5194 194.708 60.597C194.708 60.6747 194.678 60.7492 194.623 60.8041C194.568 60.8591 194.493 60.8899 194.415 60.8899Z" fill="#313131"/>
<path id="Vector_18" d="M169.042 60.8899H165.092C165.014 60.8899 164.94 60.8591 164.885 60.8041C164.83 60.7492 164.799 60.6747 164.799 60.597C164.799 60.5194 164.83 60.4449 164.885 60.3899C164.94 60.335 165.014 60.3042 165.092 60.3042H169.042C169.12 60.3042 169.195 60.335 169.249 60.3899C169.304 60.4449 169.335 60.5194 169.335 60.597C169.335 60.6747 169.304 60.7492 169.249 60.8041C169.195 60.8591 169.12 60.8899 169.042 60.8899Z" fill="#313131"/>
<path id="Vector_19" d="M190.47 64.3481C190.439 64.348 190.409 64.3433 190.379 64.3341L179.663 60.8361C179.617 60.821 179.576 60.7949 179.543 60.7602C179.51 60.7254 179.486 60.6832 179.473 60.637C179.459 60.5913 179.456 60.5429 179.466 60.4962C179.476 60.4495 179.498 60.4061 179.529 60.3698L184.887 53.9784C184.912 53.9489 184.942 53.9246 184.977 53.9068C185.011 53.889 185.048 53.878 185.087 53.8746C185.125 53.8713 185.163 53.8755 185.2 53.8871C185.237 53.8987 185.271 53.9174 185.301 53.9421C185.33 53.9669 185.354 53.9973 185.372 54.0315C185.391 54.0656 185.402 54.103 185.405 54.1414C185.408 54.1798 185.404 54.2185 185.392 54.2552C185.381 54.292 185.362 54.3261 185.337 54.3557L180.255 60.4121L190.564 63.7764C190.638 63.8011 190.698 63.8538 190.733 63.9231C190.769 63.9923 190.775 64.0726 190.751 64.1466C190.732 64.2059 190.695 64.2575 190.644 64.2938C190.593 64.33 190.533 64.3491 190.47 64.3481Z" fill="#313131"/>
<path id="Vector_20" d="M179.754 61.757C180.417 61.757 180.954 61.22 180.954 60.5575C180.954 59.8949 180.417 59.3579 179.754 59.3579C179.091 59.3579 178.554 59.8949 178.554 60.5575C178.554 61.22 179.091 61.757 179.754 61.757Z" fill="#EBE101"/>
<path id="Vector_21" d="M179.754 62.0497C179.459 62.0497 179.17 61.9623 178.925 61.7983C178.679 61.6342 178.488 61.4012 178.375 61.1285C178.262 60.8557 178.233 60.5557 178.29 60.2662C178.348 59.9766 178.49 59.7107 178.698 59.5021C178.908 59.2933 179.173 59.1512 179.463 59.0936C179.752 59.0361 180.052 59.0656 180.325 59.1785C180.598 59.2915 180.831 59.4828 180.995 59.7282C181.159 59.9737 181.246 60.2622 181.246 60.5573C181.246 60.9532 181.09 61.3327 180.81 61.6126C180.529 61.8926 180.15 62.0497 179.754 62.0497ZM179.754 59.6507C179.575 59.6507 179.399 59.7038 179.25 59.8034C179.101 59.9031 178.984 60.0447 178.916 60.2104C178.847 60.376 178.83 60.5583 178.865 60.7343C178.9 60.9101 178.986 61.0716 179.113 61.1985C179.239 61.3253 179.402 61.4116 179.577 61.4467C179.753 61.4817 179.935 61.4637 180.101 61.3951C180.266 61.3264 180.408 61.2101 180.508 61.0611C180.608 60.9119 180.66 60.7367 180.66 60.5573C180.66 60.3169 180.565 60.0863 180.395 59.9162C180.225 59.7462 179.994 59.6507 179.754 59.6507Z" fill="#313131"/>
<path id="Vector_22" d="M152.611 63.6382H126.322V94.6229H152.611V63.6382Z" fill="white"/>
<path id="Vector_23" d="M152.611 94.9179H126.322C126.244 94.9179 126.17 94.8871 126.115 94.8322C126.06 94.7772 126.029 94.7028 126.029 94.6251V63.638C126.029 63.5604 126.06 63.4859 126.115 63.4309C126.17 63.376 126.244 63.3452 126.322 63.3452H152.611C152.689 63.3452 152.764 63.376 152.819 63.4309C152.873 63.4859 152.904 63.5604 152.904 63.638V94.6251C152.904 94.7028 152.873 94.7772 152.819 94.8322C152.764 94.8871 152.689 94.9179 152.611 94.9179ZM126.605 94.3323H152.319V63.931H126.615L126.605 94.3323Z" fill="#313131"/>
<path id="Vector_24" d="M142.734 69.6125H134.567C134.489 69.6125 134.414 69.5817 134.36 69.5268C134.305 69.4718 134.274 69.3974 134.274 69.3197C134.274 69.242 134.305 69.1674 134.36 69.1126C134.414 69.0577 134.489 69.0269 134.567 69.0269H142.734C142.812 69.0269 142.886 69.0577 142.941 69.1126C142.996 69.1674 143.027 69.242 143.027 69.3197C143.027 69.3974 142.996 69.4718 142.941 69.5268C142.886 69.5817 142.812 69.6125 142.734 69.6125Z" fill="#313131"/>
<path id="Vector_25" d="M147.942 74.8724H130.216C130.138 74.8724 130.064 74.8415 130.009 74.7867C129.954 74.7317 129.923 74.6571 129.923 74.5795C129.923 74.5018 129.954 74.4273 130.009 74.3725C130.064 74.3175 130.138 74.2866 130.216 74.2866H147.942C148.02 74.2866 148.095 74.3175 148.15 74.3725C148.204 74.4273 148.235 74.5018 148.235 74.5795C148.235 74.6571 148.204 74.7317 148.15 74.7867C148.095 74.8415 148.02 74.8724 147.942 74.8724Z" fill="#313131"/>
<path id="Vector_26" d="M147.942 80.1297H130.216C130.138 80.1297 130.064 80.0987 130.009 80.0439C129.954 79.989 129.923 79.9145 129.923 79.8368C129.923 79.7591 129.954 79.6846 130.009 79.6297C130.064 79.5748 130.138 79.5439 130.216 79.5439H147.942C148.02 79.5439 148.095 79.5748 148.15 79.6297C148.204 79.6846 148.235 79.7591 148.235 79.8368C148.235 79.9145 148.204 79.989 148.15 80.0439C148.095 80.0987 148.02 80.1297 147.942 80.1297Z" fill="#313131"/>
<path id="Vector_27" d="M147.942 85.3893H130.216C130.138 85.3893 130.064 85.3585 130.009 85.3036C129.954 85.2486 129.923 85.1742 129.923 85.0965C129.923 85.0188 129.954 84.9444 130.009 84.8894C130.064 84.8346 130.138 84.8037 130.216 84.8037H147.942C148.02 84.8037 148.095 84.8346 148.15 84.8894C148.204 84.9444 148.235 85.0188 148.235 85.0965C148.235 85.1742 148.204 85.2486 148.15 85.3036C148.095 85.3585 148.02 85.3893 147.942 85.3893Z" fill="#313131"/>
<path id="Vector_28" d="M139.466 62.4807C140.305 62.4807 140.984 61.801 140.984 60.9625C140.984 60.124 140.305 59.4443 139.466 59.4443C138.628 59.4443 137.947 60.124 137.947 60.9625C137.947 61.801 138.628 62.4807 139.466 62.4807Z" fill="#5DD400"/>
<path id="Vector_29" d="M139.465 62.771C139.107 62.771 138.757 62.6647 138.459 62.4657C138.161 62.2666 137.93 61.9835 137.793 61.6525C137.655 61.3214 137.619 60.9571 137.69 60.6058C137.76 60.2544 137.932 59.9317 138.186 59.6785C138.439 59.4253 138.763 59.253 139.114 59.1834C139.465 59.1138 139.83 59.15 140.16 59.2875C140.491 59.4249 140.774 59.6573 140.973 59.9555C141.172 60.2536 141.277 60.604 141.277 60.9623C141.277 61.2 141.23 61.4354 141.139 61.655C141.048 61.8746 140.914 62.0741 140.746 62.2421C140.578 62.4101 140.378 62.5432 140.159 62.634C139.939 62.7248 139.703 62.7713 139.465 62.771ZM139.465 59.7253C139.224 59.7257 138.988 59.7977 138.787 59.9321C138.586 60.0665 138.429 60.2573 138.337 60.4806C138.244 60.7039 138.22 60.9495 138.266 61.1868C138.313 61.424 138.428 61.6422 138.598 61.8137C138.768 61.9853 138.986 62.1027 139.223 62.1511C139.46 62.1995 139.706 62.1768 139.93 62.0858C140.153 61.9947 140.345 61.8395 140.482 61.6396C140.618 61.4397 140.691 61.2041 140.693 60.9623C140.693 60.8012 140.662 60.6417 140.6 60.4929C140.539 60.344 140.448 60.2088 140.333 60.095C140.219 59.9812 140.084 59.891 139.935 59.8295C139.787 59.7682 139.627 59.7367 139.465 59.737V59.7253Z" fill="#313131"/>
<path id="Vector_30" d="M139.465 65.2804C139.388 65.2804 139.314 65.2496 139.259 65.1947C139.204 65.1397 139.173 65.0652 139.173 64.9876V62.4784C139.173 62.4007 139.204 62.3262 139.259 62.2713C139.314 62.2164 139.388 62.1855 139.465 62.1855C139.543 62.1855 139.618 62.2164 139.672 62.2713C139.727 62.3262 139.758 62.4007 139.758 62.4784V64.9876C139.758 65.0652 139.727 65.1397 139.672 65.1947C139.618 65.2496 139.543 65.2804 139.465 65.2804Z" fill="#313131"/>
<path id="Vector_31" d="M159.352 88.1914H143.933V103.61H159.352V88.1914Z" fill="white"/>
<path id="Vector_32" d="M159.352 103.906H143.933C143.856 103.906 143.782 103.875 143.727 103.82C143.672 103.765 143.641 103.69 143.641 103.613V88.1917C143.641 88.114 143.672 88.0396 143.727 87.9846C143.782 87.9298 143.856 87.8989 143.933 87.8989H159.352C159.43 87.8989 159.505 87.9298 159.559 87.9846C159.614 88.0396 159.645 88.114 159.645 88.1917V103.603C159.646 103.642 159.64 103.682 159.625 103.718C159.611 103.755 159.59 103.788 159.563 103.816C159.535 103.845 159.502 103.867 159.466 103.882C159.43 103.898 159.392 103.906 159.352 103.906ZM144.226 103.32H159.059V88.4847H144.226V103.32Z" fill="#313131"/>
<path id="Vector_33" d="M151.306 101.171L146.642 95.2834L148.071 94.1494L151.236 98.144L156.224 91.1997L157.707 92.2633L151.306 101.171Z" fill="#1400F5"/>
<path id="Vector_34" d="M151.306 101.464C151.261 101.465 151.217 101.455 151.177 101.436C151.136 101.417 151.1 101.389 151.072 101.354L146.408 95.4663C146.36 95.4052 146.338 95.3277 146.346 95.2505C146.355 95.1732 146.394 95.1027 146.454 95.0539L147.886 93.9223C147.916 93.8983 147.95 93.8805 147.987 93.8698C148.023 93.8592 148.063 93.8559 148.1 93.8603C148.139 93.8647 148.176 93.8765 148.209 93.8952C148.243 93.9138 148.273 93.939 148.296 93.9692L151.236 97.6568L155.999 91.0288C156.043 90.9689 156.107 90.9276 156.179 90.9132C156.253 90.899 156.327 90.9126 156.391 90.9515L157.874 92.0176C157.904 92.0396 157.932 92.0678 157.952 92.1004C157.971 92.133 157.984 92.1693 157.991 92.2073C157.998 92.2452 157.997 92.2841 157.988 92.3217C157.979 92.3591 157.963 92.3944 157.939 92.4252L151.541 101.328C151.513 101.365 151.478 101.396 151.438 101.417C151.397 101.438 151.352 101.449 151.306 101.45V101.464ZM147.052 95.3327L151.295 100.686L157.3 92.3314L156.292 91.6075L151.471 98.3152C151.443 98.352 151.408 98.382 151.368 98.4026C151.327 98.4232 151.282 98.434 151.236 98.434C151.191 98.434 151.146 98.4232 151.105 98.4026C151.064 98.382 151.028 98.352 151.002 98.3152L148.019 94.5525L147.052 95.3327Z" fill="#313131"/>
<path id="Vector_35" d="M77.8696 123.311L91.0557 115.83L77.5793 92.0781L64.3931 99.5598L77.8696 123.311Z" fill="white"/>
<path id="Vector_36" d="M77.8734 123.597C77.8216 123.598 77.7707 123.584 77.7258 123.558C77.6809 123.532 77.6437 123.495 77.618 123.45L64.1441 99.6975C64.1246 99.6643 64.1121 99.6274 64.1072 99.5891C64.1024 99.5509 64.1054 99.512 64.116 99.4749C64.1261 99.4376 64.1436 99.4026 64.1673 99.3721C64.191 99.3416 64.2205 99.316 64.2542 99.2969L77.4353 91.816C77.5028 91.778 77.5825 91.7683 77.6572 91.7889C77.7318 91.8095 77.7952 91.8589 77.8336 91.9262L91.3099 115.678C91.3298 115.713 91.3426 115.753 91.3474 115.792C91.3522 115.833 91.349 115.874 91.338 115.913C91.3168 115.988 91.2673 116.051 91.1998 116.091L78.0117 123.572C77.9684 123.591 77.9209 123.6 77.8734 123.597ZM64.7978 99.6624L77.9835 122.904L90.6609 115.713L77.4751 92.4697L64.7978 99.6624Z" fill="#313131"/>
<path id="Vector_37" d="M72.4939 101.919C71.4355 102.35 70.5199 103.071 69.8516 103.998C69.1833 104.925 68.7893 106.022 68.7148 107.162L65.6831 101.818L73.4849 99.6978L72.4939 101.919Z" fill="#313131"/>
<path id="Vector_38" d="M68.7151 107.455C68.6631 107.455 68.6121 107.441 68.5672 107.414C68.5225 107.388 68.4854 107.35 68.4597 107.305L65.4304 101.963C65.408 101.925 65.3948 101.881 65.3918 101.837C65.3887 101.792 65.396 101.748 65.413 101.707C65.43 101.665 65.4562 101.629 65.4897 101.599C65.5232 101.57 65.563 101.548 65.6061 101.537L73.4103 99.4164C73.4636 99.4015 73.52 99.4023 73.5729 99.4184C73.6259 99.4346 73.6731 99.4655 73.709 99.5077C73.745 99.5497 73.7682 99.6012 73.7758 99.656C73.7834 99.7108 73.7753 99.7667 73.7524 99.8169L72.7613 102.038C72.7447 102.074 72.7211 102.107 72.6917 102.134C72.6623 102.161 72.6278 102.182 72.5902 102.195C71.5809 102.601 70.7076 103.285 70.0723 104.168C69.4368 105.052 69.0653 106.097 69.001 107.183C68.9953 107.246 68.9696 107.306 68.9273 107.354C68.8852 107.402 68.8289 107.434 68.7667 107.448L68.7151 107.455ZM66.1238 102.003L68.5441 106.267C68.758 105.262 69.2086 104.322 69.8586 103.527C70.5085 102.731 71.339 102.102 72.281 101.691L72.9839 100.143L66.1238 102.003Z" fill="#313131"/>
<path id="Vector_39" d="M61.656 98.9527C61.7967 100.215 62.4328 101.369 63.4244 102.162C64.4159 102.955 65.6819 103.322 66.9438 103.182C66.9438 103.182 71.6297 103.711 74.0522 100.534C75.6547 98.4256 78.4451 99.7423 78.1522 97.1136L76.6786 83.8692C76.5356 82.6087 75.8981 81.4565 74.9062 80.6659C73.9143 79.8751 72.6489 79.5104 71.3883 79.652L64.4276 80.5728C61.7989 80.8656 59.8871 83.0891 60.1799 85.7272L60.4587 88.2387L58.9944 93.6273L61.0866 93.8617L61.656 98.9527Z" fill="white"/>
<path id="Vector_40" d="M66.4096 103.505C65.1605 103.502 63.9561 103.04 63.0258 102.206C62.0956 101.373 61.5046 100.226 61.3653 98.9851L60.8218 94.1212L58.9615 93.9081C58.9196 93.9038 58.8791 93.8903 58.843 93.8684C58.8069 93.8465 58.7761 93.8168 58.753 93.7815C58.7299 93.7476 58.7144 93.7092 58.707 93.6688C58.6998 93.6285 58.7011 93.5871 58.7108 93.5472L60.1611 88.2055L59.8893 85.7478C59.5824 82.9972 61.5622 80.5935 64.3971 80.2795L71.3437 79.3517C72.0075 79.2764 72.6795 79.3327 73.3214 79.5174C73.9634 79.7022 74.5626 80.0115 75.0849 80.428C75.6071 80.8446 76.0422 81.36 76.3651 81.9447C76.688 82.5295 76.8923 83.1722 76.9666 83.836L78.1006 93.9971C78.1074 94.0364 78.1061 94.0767 78.0967 94.1155C78.0873 94.1543 78.0702 94.1907 78.0462 94.2226C78.0223 94.2546 77.992 94.2812 77.9575 94.301C77.9228 94.3209 77.8845 94.3334 77.8448 94.3379C77.8052 94.3424 77.7651 94.3386 77.7269 94.3271C77.6887 94.3155 77.6533 94.2962 77.6228 94.2704C77.5924 94.2447 77.5675 94.213 77.5497 94.1772C77.5319 94.1415 77.5217 94.1026 77.5195 94.0627L76.3856 83.8993C76.3195 83.3131 76.1385 82.7458 75.8532 82.2295C75.5677 81.7134 75.1835 81.2584 74.7222 80.8908C74.261 80.5231 73.7319 80.2498 73.165 80.0867C72.5982 79.9235 72.0048 79.8736 71.4187 79.9398L64.4673 80.8605C61.9535 81.1417 60.2009 83.2573 60.4704 85.6822L60.7491 88.1961C60.7562 88.2317 60.7562 88.2683 60.7491 88.3038L59.3738 93.3715L61.1264 93.573C61.1924 93.5797 61.2542 93.609 61.3011 93.656C61.3481 93.703 61.3774 93.7646 61.3841 93.8307L61.9464 98.9172C62.0766 100.104 62.6728 101.19 63.6038 101.937C64.5348 102.684 65.7244 103.03 66.9109 102.9H66.9485C66.9976 102.9 72.0841 102.933 73.8108 100.381C73.8318 100.348 73.8592 100.32 73.8914 100.298C73.9236 100.275 73.96 100.26 73.9983 100.252C74.0367 100.244 74.0762 100.244 74.1146 100.251C74.153 100.259 74.1896 100.274 74.2221 100.296C74.2544 100.318 74.2822 100.346 74.3035 100.379C74.3249 100.412 74.3394 100.449 74.3463 100.487C74.3531 100.526 74.3522 100.565 74.3435 100.603C74.3349 100.642 74.3186 100.678 74.2957 100.71C72.4215 103.469 67.3631 103.491 66.9578 103.486C66.7755 103.501 66.5925 103.508 66.4096 103.505Z" fill="#313131"/>
<path id="Vector_41" d="M71.2102 91.8888C70.1677 92.1231 69.8045 90.8368 69.528 89.061C69.1673 86.7532 68.4761 86.8891 61.6723 86.7579C55.602 86.6408 56.661 81.9831 63.3615 80.6523C67.5343 79.8229 75.4556 79.0756 75.7274 79.2045C76.1209 79.3918 76.9831 83.5576 77.6017 86.8025C78.6419 92.2286 79.2253 94.9628 79.2253 94.9628L74.9027 93.4492L71.2102 91.8888Z" fill="#313131"/>
<path id="Vector_42" d="M79.2276 95.2603C79.1949 95.2607 79.1623 95.2552 79.1316 95.2439L74.809 93.7303L71.1774 92.1981C70.8915 92.2512 70.5962 92.1899 70.3552 92.0271C69.7389 91.6101 69.4625 90.5581 69.2376 89.1102C68.9494 87.2594 68.7104 87.182 62.8344 87.0765L61.6631 87.0555C59.1373 87.0063 57.5559 86.1558 57.4294 84.7805C57.2888 83.2109 59.2592 81.1912 63.3031 80.3712C66.9321 79.6333 75.3806 78.7312 75.8492 78.9444C76.0834 79.0569 76.4466 79.2256 77.8899 86.7509C78.916 92.1115 79.5065 94.8785 79.5111 94.9066C79.5224 94.9573 79.52 95.0102 79.5039 95.0595C79.4878 95.109 79.4588 95.1533 79.4198 95.1876C79.3661 95.2336 79.2982 95.2593 79.2276 95.2603ZM71.2103 91.6007C71.2489 91.6015 71.2871 91.6094 71.3228 91.6241L75.0174 93.1846L78.8341 94.5199C78.6208 93.4937 78.0937 90.9189 77.3159 86.8611C76.2007 81.0413 75.7485 79.7551 75.5868 79.488C74.6777 79.4576 67.4851 80.1206 63.4202 80.9453C59.7559 81.6879 57.9003 83.4498 58.0151 84.7266C58.1089 85.7598 59.5123 86.4276 61.6771 86.4698L62.8485 86.4909C68.5675 86.594 69.4461 86.6103 69.8209 89.0212C69.9873 90.0895 70.2216 91.2235 70.6878 91.5421C70.7563 91.5868 70.8338 91.6158 70.9148 91.6271C70.9958 91.6385 71.0782 91.6318 71.1564 91.6077C71.1741 91.6038 71.1922 91.6015 71.2103 91.6007Z" fill="#313131"/>
<path id="Vector_43" d="M64.6946 90.8295C64.6272 90.8298 64.5618 90.8065 64.5097 90.7637C64.4574 90.721 64.4219 90.6614 64.4088 90.5953C64.069 88.906 62.1244 89.1123 62.0425 89.1216C61.9671 89.1277 61.8921 89.1045 61.8335 89.0566C61.7749 89.0088 61.737 88.9401 61.7279 88.8649C61.7189 88.7897 61.7392 88.714 61.7848 88.6535C61.8303 88.5931 61.8975 88.5526 61.9722 88.5406C62.8578 88.4328 64.6267 88.7022 64.9828 90.4805C64.9972 90.5573 64.9806 90.6365 64.9367 90.701C64.8928 90.7656 64.8251 90.8101 64.7485 90.8249L64.6946 90.8295Z" fill="#313131"/>
<path id="Vector_44" d="M62.4266 91.5372C62.6568 91.5372 62.8436 91.3505 62.8436 91.1202C62.8436 90.8899 62.6568 90.7031 62.4266 90.7031C62.1962 90.7031 62.0095 90.8899 62.0095 91.1202C62.0095 91.3505 62.1962 91.5372 62.4266 91.5372Z" fill="#313131"/>
<path id="Vector_45" d="M73.455 94.9969C74.5026 94.9617 75.3083 93.6365 75.2546 92.0367C75.2011 90.4371 74.3083 89.1687 73.2609 89.2038C72.2134 89.239 71.4077 90.5642 71.4613 92.1639C71.5149 93.7637 72.4075 95.032 73.455 94.9969Z" fill="white"/>
<path id="Vector_46" d="M74.3895 94.8828C74.349 94.8826 74.309 94.8743 74.272 94.8581C74.2349 94.842 74.2016 94.8185 74.1739 94.7891C74.1477 94.7608 74.1273 94.7277 74.1139 94.6915C74.1005 94.6553 74.0944 94.6169 74.096 94.5784C74.0974 94.5399 74.1066 94.502 74.1228 94.467C74.139 94.432 74.1619 94.4005 74.1903 94.3744C74.7081 93.9058 75.0103 93.0038 74.9775 92.0432C74.9711 91.3765 74.7726 90.7258 74.4058 90.1689C74.0872 89.7167 73.6866 89.466 73.2859 89.4895C72.8853 89.5129 72.4987 89.7706 72.2129 90.2415C71.8855 90.8209 71.731 91.4819 71.7677 92.1463C71.769 92.1848 71.7627 92.2231 71.749 92.2591C71.7354 92.2951 71.7149 92.3281 71.6886 92.3562C71.6623 92.3842 71.6307 92.4068 71.5956 92.4227C71.5605 92.4386 71.5227 92.4473 71.4842 92.4485C71.4459 92.4501 71.4076 92.444 71.3716 92.4308C71.3356 92.4175 71.3026 92.3972 71.2745 92.3709C71.2464 92.3448 71.2238 92.3134 71.2079 92.2784C71.1921 92.2435 71.1832 92.2058 71.182 92.1674C71.1407 91.3886 71.3245 90.6142 71.7115 89.937C72.1051 89.2903 72.6487 88.9249 73.2648 88.9038C73.881 88.8827 74.4504 89.2131 74.8838 89.841C75.3155 90.49 75.5514 91.2496 75.5632 92.0292C75.6007 93.1538 75.2259 94.2197 74.5885 94.8102C74.5334 94.8583 74.4625 94.884 74.3895 94.8828Z" fill="#313131"/>
<path id="Vector_47" d="M73.0471 92.306C72.9711 92.3061 72.898 92.2767 72.8432 92.224C72.8088 92.1896 72.7833 92.1472 72.769 92.1007C72.7547 92.0542 72.752 92.0048 72.7612 91.9569L72.9956 90.8393C73.013 90.7654 73.0584 90.7012 73.1223 90.6602C73.1862 90.6192 73.2636 90.6046 73.338 90.6195C73.4125 90.6344 73.4783 90.6775 73.5215 90.74C73.5646 90.8024 73.5819 90.8793 73.5696 90.9541L73.4337 91.6289L73.5157 91.6102C73.5915 91.5931 73.671 91.6068 73.7367 91.6483C73.8023 91.6899 73.8489 91.7557 73.866 91.8316C73.883 91.9074 73.8693 91.9869 73.8278 92.0525C73.7863 92.1182 73.7204 92.1648 73.6445 92.1818L73.1221 92.299C73.0975 92.3045 73.0723 92.3068 73.0471 92.306Z" fill="#313131"/>
<path id="Vector_48" d="M63.9097 97.2775C63.8037 97.2776 63.6988 97.2544 63.6028 97.2095C63.4511 97.1225 63.3269 96.9948 63.2441 96.8407C63.1613 96.6867 63.1232 96.5125 63.1342 96.338C63.1303 95.9323 63.221 95.5312 63.399 95.1666C63.8254 94.2576 64.5588 93.7608 65.1022 94.0185C65.6458 94.2763 65.7372 95.1525 65.3108 96.0615C65.1464 96.4323 64.8967 96.759 64.5821 97.0152C64.3931 97.1744 64.1566 97.2666 63.9097 97.2775ZM64.7884 94.5363C64.5868 94.5363 64.1932 94.8409 63.9261 95.4149C63.7872 95.6945 63.7151 96.0025 63.7153 96.3146C63.7153 96.4997 63.7762 96.6426 63.8512 96.6778C63.9261 96.7129 64.0854 96.6636 64.2214 96.5513C64.4604 96.351 64.6504 96.0984 64.7766 95.8132C65.0765 95.1736 65.0109 94.6277 64.8493 94.5481C64.8286 94.5387 64.8062 94.5339 64.7836 94.534L64.7884 94.5363Z" fill="#313131"/>
<path id="Vector_49" d="M145.213 181.969H93.6009C92.1952 177.577 90.4592 173.25 90.4592 173.25C90.4592 173.25 83.0018 186.457 74.059 184.639C50.9323 179.937 52.3545 129.475 52.3545 129.475L52.5184 129.53C54.4636 130.153 56.5086 130.404 58.5467 130.27H58.5607H58.6123H58.7364L58.9707 130.256H59.0011H59.0926H59.1394H59.1769C59.2636 130.256 59.3527 130.256 59.4393 130.235C59.6033 130.218 59.765 130.204 59.922 130.185H59.9992L60.2664 130.155H60.3506L60.585 130.127H60.6412H60.6717C62.4757 129.873 64.2533 129.458 65.983 128.885C66.742 128.637 67.2318 128.44 67.3559 128.393L67.3817 128.382C67.6042 129.975 67.8503 131.5 68.0845 132.946C69.6473 141.9 71.6129 147.849 71.6833 148.06C71.6833 148.022 71.6949 147.985 71.6996 147.948C71.7325 147.739 71.7512 147.626 71.7512 147.626C72.2807 144.465 74.2323 136.873 75.795 131.015C76.9407 126.698 77.8779 123.31 77.8779 123.31L86.5723 107.924C87.5709 107.123 88.5236 106.266 89.426 105.358C92.6849 102.132 97.7338 96.1107 98.9896 88.8174C100.245 81.5239 98.5843 72.621 97.2582 67.2276C96.5343 64.2849 95.9087 62.3942 95.9087 62.3942C95.9087 62.3942 101.855 56.1527 109.446 57.2563C109.446 57.2563 110.106 59.0392 111.051 61.7758C113.393 68.5537 117.475 81.1913 117.587 87.0789C117.742 95.2415 112.518 118.333 116.65 124.476C116.699 124.551 116.751 124.621 116.802 124.689C120.83 129.985 140.077 158.427 145.213 181.969Z" fill="white"/>
<path id="Vector_50" d="M145.213 182.262C145.146 182.261 145.08 182.236 145.028 182.195C144.977 182.152 144.941 182.093 144.926 182.027C139.915 159.067 120.987 130.668 116.577 124.86C116.521 124.788 116.466 124.71 116.414 124.627C113.575 120.409 114.994 108.898 116.245 98.7396C116.843 93.9015 117.358 89.7218 117.306 87.0674C117.196 81.2523 113.174 68.7716 110.786 61.8508C110.015 59.618 109.427 58.0038 109.245 57.5024C102.558 56.6285 97.1271 61.6047 96.2556 62.4553C96.4243 62.9871 96.9586 64.7185 97.5559 67.1411C99.0226 73.1131 100.517 81.7278 99.2897 88.8526C97.9988 96.3498 92.6921 102.533 89.6441 105.55C88.745 106.457 87.7978 107.315 86.8068 108.12L78.1381 123.417C78.035 123.787 77.1353 127.051 76.0646 131.086C73.7873 139.677 72.3887 145.454 72.0232 147.795V147.833C72.0232 147.863 72.0232 147.896 72.0067 147.933L71.9904 148.045C71.9814 148.111 71.9503 148.173 71.9021 148.219C71.854 148.264 71.7916 148.292 71.7253 148.298C71.6591 148.303 71.5929 148.287 71.5375 148.25C71.4822 148.213 71.4412 148.158 71.421 148.095C71.332 147.833 69.3781 141.919 67.8106 132.939C67.5483 131.42 67.3069 129.882 67.0937 128.366C67.0828 128.288 67.103 128.21 67.1498 128.147C67.1966 128.086 67.2662 128.044 67.3433 128.034C67.4203 128.023 67.4985 128.043 67.5607 128.09C67.6228 128.136 67.6639 128.207 67.6747 128.284C67.8857 129.795 68.1269 131.329 68.3776 132.838C69.1823 137.539 70.2611 142.189 71.6084 146.765C72.2715 143.309 74.0498 136.39 75.4953 130.935C76.6293 126.667 77.5711 123.26 77.5805 123.227C77.5866 123.204 77.5953 123.182 77.6063 123.161L86.3124 107.781C86.3331 107.747 86.3592 107.717 86.3897 107.692C87.3779 106.898 88.3212 106.05 89.2153 105.152C92.2142 102.184 97.4341 96.1062 98.6969 88.7682C99.9692 81.3741 98.1605 72.1338 96.9702 67.298C96.2674 64.4022 95.6324 62.5068 95.6277 62.488C95.6108 62.4375 95.608 62.3833 95.6195 62.3313C95.631 62.2793 95.6566 62.2314 95.6934 62.1929C95.7543 62.1296 101.832 55.8554 109.484 56.9682C109.536 56.9746 109.586 56.9956 109.627 57.0288C109.669 57.0618 109.7 57.1058 109.718 57.1556C109.718 57.1744 110.393 58.9738 111.325 61.6821C113.724 68.6358 117.766 81.1819 117.886 87.0767C117.937 89.7733 117.417 93.9719 116.821 98.8333C115.65 108.392 114.176 120.289 116.895 124.324C116.941 124.394 116.99 124.46 117.037 124.523C118.764 126.789 124.609 135.124 130.861 146.348C136.035 155.656 142.779 169.38 145.51 181.907C145.518 181.946 145.519 181.985 145.511 182.023C145.504 182.062 145.488 182.098 145.466 182.131C145.444 182.163 145.417 182.19 145.384 182.212C145.351 182.233 145.315 182.247 145.276 182.254L145.213 182.262Z" fill="#313131"/>
<path id="Vector_51" d="M75.7953 185.107C75.1941 185.107 74.5945 185.047 74.0053 184.927C68.6447 183.837 64.1652 180.222 60.6626 174.182C57.8862 169.384 55.7308 163.049 54.2524 155.35C51.7408 142.268 52.0641 129.595 52.0665 129.468C52.0689 129.426 52.0807 129.384 52.1009 129.346C52.1211 129.307 52.1494 129.274 52.1836 129.248C52.2189 129.221 52.2591 129.204 52.3018 129.194C52.3446 129.184 52.389 129.183 52.432 129.192L52.4789 129.206H52.4976L52.5656 129.229C54.2899 129.83 56.3001 130.078 58.5376 129.972H58.5704H58.6055C58.7226 129.972 58.8397 129.972 58.957 129.954L59.1655 129.939C59.2498 129.939 59.3342 129.939 59.4162 129.918H59.4911C59.6551 129.904 59.8144 129.888 59.9737 129.869L60.208 129.844H60.2502L60.604 129.799C62.3993 129.549 64.1684 129.136 65.8895 128.566C66.5924 128.332 67.061 128.149 67.2203 128.098L67.2578 128.081H67.2836C67.3166 128.069 67.3514 128.062 67.3867 128.062C67.425 128.062 67.463 128.07 67.4985 128.084C67.5341 128.099 67.5663 128.12 67.5935 128.147C67.6209 128.174 67.6424 128.206 67.6572 128.241C67.6719 128.277 67.6795 128.315 67.6795 128.353C67.68 128.415 67.6607 128.475 67.6245 128.526C67.5883 128.576 67.5369 128.613 67.478 128.632L67.4358 128.649C67.2766 128.712 66.7916 128.901 66.0723 129.138C64.3179 129.72 62.5142 130.141 60.6837 130.396L60.3323 130.441H60.3111L60.0347 130.474C59.8784 130.492 59.7145 130.509 59.5427 130.523H59.4748C59.3833 130.523 59.2896 130.54 59.1983 130.544L58.9968 130.558C58.8726 130.558 58.7625 130.575 58.6266 130.579H58.5634C56.5649 130.708 54.5596 130.477 52.6428 129.898C52.61 132.14 52.5749 143.538 54.8264 155.263C56.2931 162.897 58.4274 169.169 61.171 173.91C64.5751 179.796 68.9329 183.315 74.1201 184.37C82.7584 186.124 90.1361 173.253 90.2088 173.123C90.2365 173.076 90.2771 173.037 90.326 173.01C90.3748 172.984 90.4299 172.972 90.4852 172.976C90.5401 172.979 90.5928 172.998 90.6372 173.031C90.6817 173.063 90.7158 173.108 90.7359 173.158C90.7547 173.201 92.4883 177.544 93.8847 181.896C93.9086 181.969 93.9022 182.049 93.8669 182.119C93.8314 182.188 93.7701 182.24 93.6961 182.264C93.6221 182.289 93.5417 182.282 93.4726 182.247C93.4033 182.211 93.3511 182.149 93.3271 182.076C92.2283 178.655 90.9209 175.239 90.4126 173.932C88.9998 176.216 83.1028 185.107 75.7953 185.107Z" fill="#313131"/>
<path id="Vector_52" d="M69.6144 160.535C69.5973 160.537 69.58 160.537 69.5628 160.535C69.4869 160.521 69.4196 160.477 69.3757 160.413C69.3318 160.349 69.3149 160.272 69.3286 160.196C70.3595 154.404 71.47 147.607 71.4817 147.544C71.488 147.506 71.5017 147.469 71.5221 147.437C71.5425 147.404 71.5691 147.376 71.6004 147.354C71.6318 147.331 71.6672 147.315 71.7048 147.307C71.7422 147.298 71.7811 147.297 71.8191 147.302C71.8571 147.309 71.8935 147.323 71.9261 147.343C71.9588 147.364 71.9872 147.39 72.0096 147.422C72.032 147.453 72.0481 147.488 72.0567 147.526C72.0655 147.563 72.0667 147.602 72.0605 147.64C72.0487 147.708 70.9358 154.507 69.9049 160.303C69.8909 160.369 69.8542 160.428 69.8012 160.471C69.7482 160.513 69.6822 160.536 69.6144 160.535Z" fill="#313131"/>
<path id="Vector_53" d="M90.457 173.543C90.4069 173.544 90.3576 173.531 90.3141 173.506C90.2469 173.467 90.1974 173.403 90.1764 173.33C90.1554 173.255 90.1644 173.175 90.2016 173.107C93.2236 167.545 95.9232 161.814 98.287 155.941C98.3162 155.868 98.3728 155.811 98.4444 155.781C98.5161 155.751 98.5967 155.75 98.6688 155.779C98.7409 155.808 98.7985 155.865 98.8287 155.936C98.859 156.009 98.8597 156.089 98.8305 156.161C96.4617 162.056 93.7543 167.81 90.7217 173.394C90.6958 173.44 90.6573 173.479 90.6106 173.506C90.5639 173.532 90.5107 173.545 90.457 173.543Z" fill="#313131"/>
<path id="Vector_54" d="M116.796 124.991C116.75 124.991 116.705 124.98 116.664 124.958C116.624 124.937 116.588 124.906 116.562 124.869C114.155 121.496 110.236 116.803 110.191 116.756C110.142 116.697 110.118 116.619 110.124 116.542C110.131 116.464 110.168 116.393 110.227 116.342C110.288 116.293 110.364 116.268 110.442 116.275C110.519 116.282 110.592 116.319 110.641 116.378C110.681 116.426 114.624 121.135 117.037 124.53C117.082 124.592 117.1 124.671 117.088 124.747C117.075 124.824 117.032 124.892 116.969 124.937C116.919 124.974 116.858 124.993 116.796 124.991Z" fill="#313131"/>
<path id="Vector_55" d="M97.2632 67.5227C97.2037 67.5225 97.1456 67.5042 97.0968 67.4702C97.048 67.4362 97.0106 67.3883 96.9898 67.3325C96.9689 67.2769 96.9655 67.2161 96.98 67.1584C96.9946 67.1007 97.0263 67.0488 97.071 67.0096C97.1389 66.951 103.758 61.2976 111.062 61.485C111.101 61.486 111.139 61.4945 111.174 61.5101C111.21 61.5256 111.241 61.5479 111.268 61.5758C111.294 61.6037 111.315 61.6364 111.329 61.6724C111.342 61.7083 111.35 61.7465 111.349 61.785C111.348 61.8236 111.34 61.8618 111.325 61.8973C111.309 61.9327 111.287 61.9648 111.259 61.9914C111.232 62.0181 111.199 62.0388 111.162 62.0526C111.126 62.0662 111.088 62.0723 111.048 62.0708C103.983 61.8903 97.5186 67.3962 97.46 67.4595C97.4039 67.5032 97.3342 67.5255 97.2632 67.5227Z" fill="#313131"/>
<path id="Vector_56" d="M98.6759 64.5517C98.4599 64.5522 98.2486 64.4886 98.0687 64.3689C97.8889 64.2493 97.7486 64.0788 97.6656 63.8794C97.5825 63.68 97.5606 63.4604 97.6025 63.2484C97.6443 63.0365 97.7482 62.8417 97.9007 62.6888C98.0534 62.5358 98.2479 62.4317 98.4597 62.3893C98.6716 62.347 98.8912 62.3684 99.0909 62.4511C99.2905 62.5336 99.4612 62.6735 99.5812 62.8531C99.7013 63.0328 99.7654 63.2439 99.7654 63.4599C99.7654 63.7491 99.6507 64.0265 99.4465 64.2311C99.2422 64.4358 98.9651 64.5512 98.6759 64.5517ZM98.6759 62.9563C98.5757 62.9558 98.4775 62.9851 98.3939 63.0406C98.3103 63.096 98.2451 63.175 98.2065 63.2675C98.168 63.3602 98.1577 63.4621 98.1772 63.5605C98.1966 63.6588 98.2449 63.7492 98.3158 63.8201C98.3867 63.891 98.477 63.9393 98.5755 63.9587C98.6738 63.9782 98.7758 63.968 98.8684 63.9294C98.9609 63.8908 99.0399 63.8256 99.0954 63.742C99.1508 63.6585 99.1801 63.5602 99.1797 63.4599C99.179 63.3266 99.1258 63.1988 99.0315 63.1044C98.9371 63.0102 98.8094 62.9568 98.6759 62.9563Z" fill="#313131"/>
<path id="Vector_57" d="M65.7771 132.446C65.561 132.446 65.3498 132.382 65.1703 132.262C64.9906 132.142 64.8507 131.972 64.7682 131.772C64.6856 131.573 64.6641 131.353 64.7065 131.141C64.7487 130.929 64.853 130.734 65.0059 130.581C65.1589 130.429 65.3536 130.326 65.5655 130.284C65.7774 130.241 65.9971 130.263 66.1965 130.347C66.396 130.43 66.5663 130.569 66.686 130.749C66.8057 130.929 66.8694 131.141 66.8688 131.357C66.8683 131.646 66.7529 131.924 66.5482 132.128C66.3435 132.332 66.0662 132.446 65.7771 132.446ZM65.7771 130.85C65.677 130.85 65.5791 130.881 65.4959 130.936C65.4127 130.992 65.3479 131.071 65.3096 131.163C65.2713 131.255 65.2612 131.357 65.2807 131.456C65.3002 131.554 65.3484 131.644 65.4192 131.715C65.49 131.785 65.5802 131.834 65.6783 131.853C65.7766 131.873 65.8783 131.862 65.9707 131.825C66.0632 131.787 66.1423 131.722 66.1979 131.638C66.2534 131.555 66.2832 131.457 66.2832 131.357C66.2832 131.29 66.27 131.225 66.2447 131.163C66.2192 131.102 66.1819 131.046 66.1349 131C66.0879 130.952 66.0322 130.915 65.9707 130.89C65.9094 130.864 65.8435 130.85 65.7771 130.85Z" fill="#313131"/>
<path id="Vector_58" d="M58.5327 135.619C56.4928 135.603 54.4612 135.357 52.4763 134.885C52.4372 134.879 52.3999 134.863 52.3668 134.84C52.3338 134.818 52.3057 134.788 52.2843 134.756C52.2628 134.722 52.2484 134.684 52.242 134.645C52.2357 134.605 52.2374 134.565 52.2472 134.526C52.257 134.488 52.2745 134.452 52.2988 134.42C52.323 134.388 52.3535 134.362 52.3884 134.342C52.4232 134.323 52.4616 134.311 52.5014 134.307C52.5411 134.302 52.5812 134.307 52.6192 134.319C52.6568 134.319 56.3679 135.256 59.9595 134.979C64.8796 134.598 67.9113 132.663 67.9418 132.636C68.0066 132.6 68.0825 132.59 68.1543 132.609C68.2262 132.626 68.2885 132.671 68.3289 132.733C68.3693 132.795 68.3846 132.87 68.3719 132.942C68.3592 133.016 68.3193 133.081 68.2604 133.126C68.1316 133.21 65.0764 135.164 60.0064 135.558C59.512 135.603 59.0177 135.619 58.5327 135.619Z" fill="#313131"/>
<path id="Vector_59" d="M67.3869 128.323C66.9305 128.539 66.461 128.725 65.981 128.882C63.8586 129.58 61.6615 130.026 59.435 130.212C57.5164 130.378 55.5835 130.254 53.702 129.844C53.2453 129.747 52.7942 129.627 52.3501 129.483C52.3501 129.483 52.4579 129.099 53.5825 128.641C54.5525 128.252 56.2745 127.805 59.3343 127.503C62.7596 127.163 64.723 127.292 65.8662 127.538C67.2696 127.838 67.3869 128.323 67.3869 128.323Z" fill="#313131"/>
<path id="Vector_60" d="M57.7878 130.579C55.9119 130.589 54.0454 130.311 52.2539 129.755C52.1836 129.73 52.1252 129.679 52.0909 129.613C52.0565 129.546 52.0486 129.47 52.0689 129.398C52.1391 129.145 52.8209 127.85 59.3085 127.208C66.8479 126.46 67.5976 127.948 67.6702 128.255C67.6856 128.318 67.679 128.386 67.6514 128.446C67.6237 128.505 67.5766 128.553 67.5179 128.583C67.4055 128.642 64.6737 130.014 59.4677 130.501C58.8867 130.546 58.3244 130.579 57.7878 130.579ZM52.8843 129.332C55.0096 129.91 57.2198 130.107 59.4138 129.918C63.453 129.541 66.0067 128.599 66.8994 128.222C66.3839 127.88 64.6924 127.261 59.3647 127.788C54.9788 128.225 53.4184 128.953 52.8843 129.332Z" fill="#313131"/>
<path id="Vector_61" d="M75.7951 130.558C75.7951 130.558 76.526 124.178 75.2703 119.861C75.2703 119.861 79.9045 116.432 82.299 112.831C83.7535 110.631 84.754 108.161 85.2416 105.569C86.6193 105.996 88.1036 105.92 89.4308 105.355C89.4308 105.355 90.3304 111.775 83.8734 118.438C79.511 122.942 77.3133 126.915 75.7858 131.019L75.7951 130.558Z" fill="white"/>
<path id="Vector_62" d="M75.7951 131.315C75.7607 131.315 75.7267 131.308 75.6944 131.296C75.6582 131.283 75.6249 131.262 75.5966 131.237C75.5683 131.211 75.5455 131.179 75.5293 131.144C75.5132 131.109 75.5042 131.071 75.5028 131.032C75.5013 130.993 75.5075 130.955 75.521 130.919C75.5398 130.865 75.5608 130.811 75.5819 130.757C75.5524 130.727 75.5301 130.689 75.5167 130.649C75.5033 130.608 75.4991 130.565 75.5046 130.524C75.5046 130.46 76.2075 124.15 74.9891 119.94C74.9722 119.882 74.9734 119.821 74.9927 119.764C75.0121 119.706 75.0484 119.657 75.0969 119.622C75.1415 119.589 79.7194 116.182 82.0647 112.666C83.4904 110.499 84.4744 108.074 84.9605 105.527C84.9674 105.483 84.9838 105.442 85.0085 105.405C85.0332 105.369 85.0655 105.339 85.1034 105.316C85.1414 105.294 85.184 105.281 85.2278 105.278C85.2717 105.274 85.3156 105.281 85.3565 105.297C86.6681 105.694 88.0776 105.619 89.3394 105.084C89.3807 105.068 89.425 105.061 89.4692 105.064C89.5135 105.068 89.5563 105.081 89.5948 105.103C89.6335 105.125 89.6667 105.155 89.6915 105.192C89.7163 105.23 89.7321 105.272 89.7377 105.316C89.7775 105.583 90.5857 111.954 84.103 118.642C80.2958 122.571 77.8194 126.421 76.0786 131.121C76.0585 131.179 76.0201 131.229 75.969 131.264C75.918 131.3 75.857 131.317 75.7951 131.315ZM75.6054 119.973C76.4605 123.091 76.3457 127.109 76.2052 129.199C77.9272 125.179 80.2794 121.737 83.6742 118.237C89.0629 112.664 89.2409 107.211 89.1777 105.768C87.9887 106.184 86.7046 106.247 85.4806 105.949C84.9592 108.46 83.9654 110.851 82.552 112.992C80.3661 116.255 76.4559 119.325 75.5984 119.973H75.6054Z" fill="#313131"/>
<path id="Vector_63" d="M65.9856 128.883C63.8631 129.581 61.666 130.026 59.4396 130.212C57.5193 130.38 55.5849 130.256 53.7018 129.844C53.7018 129.844 53.6597 129.394 53.5823 128.642C53.2309 125.095 52.2047 114.819 52.0243 113.392C51.8064 111.654 53.4301 104.323 54.325 103.346C55.22 102.369 61.1194 98.9995 61.7965 100.368C62.4993 101.774 57.8487 103.69 57.5793 104.407C57.3099 105.124 57.5489 108.858 57.5489 108.858C57.5489 108.858 59.2006 105.527 60.7024 108.053C60.7024 108.053 62.6213 107.394 63.2046 109.526C63.2046 109.526 64.9078 108.947 65.4304 111.855C66.2878 116.626 64.4533 116.398 64.4533 116.398C64.4533 116.398 65.4421 123.312 65.859 127.546C65.9129 128.025 65.9552 128.48 65.9856 128.883Z" fill="white"/>
<path id="Vector_64" d="M57.8064 130.579C56.4056 130.577 55.0091 130.425 53.6408 130.125C53.5791 130.113 53.523 130.081 53.4807 130.035C53.4385 129.989 53.4125 129.93 53.4064 129.867C53.4064 129.867 53.362 129.417 53.287 128.668C52.877 124.544 51.9024 114.809 51.729 113.424C51.5111 111.696 53.1231 104.212 54.1047 103.144C54.8637 102.319 59.5401 99.5126 61.3302 99.7634C61.4807 99.7734 61.6262 99.8219 61.7528 99.9038C61.8795 99.9858 61.9832 100.099 62.0541 100.232C62.6328 101.385 60.742 102.575 59.2215 103.524C58.6756 103.866 57.9306 104.332 57.8486 104.508C57.7057 104.894 57.7268 106.539 57.7877 107.905C58.1696 107.392 58.7412 106.829 59.416 106.804C59.9431 106.783 60.4164 107.087 60.8334 107.706C61.3494 107.592 61.8886 107.657 62.3634 107.888C62.8635 108.17 63.2361 108.633 63.4036 109.182C63.7556 109.153 64.1078 109.235 64.411 109.416C65.06 109.8 65.4981 110.599 65.7137 111.797C66.1237 114.078 65.9924 115.592 65.3248 116.295C65.1776 116.458 64.9889 116.576 64.7789 116.639C64.971 118.003 65.7816 123.811 66.1518 127.51C66.201 128.005 66.2408 128.459 66.2713 128.864C66.2765 128.93 66.26 128.995 66.2245 129.05C66.1888 129.103 66.1361 129.145 66.0745 129.167C63.9299 129.87 61.71 130.32 59.4606 130.507C58.8936 130.547 58.3382 130.579 57.8064 130.579ZM53.9734 129.609C55.7607 129.981 57.5927 130.089 59.4113 129.931C61.539 129.745 63.6396 129.323 65.6738 128.672C65.6457 128.331 65.6129 127.955 65.5731 127.557C65.1561 123.378 64.1674 116.49 64.1674 116.419C64.1612 116.374 64.1654 116.329 64.1797 116.286C64.1939 116.244 64.2177 116.205 64.2494 116.173C64.2798 116.143 64.3164 116.119 64.3569 116.103C64.3974 116.089 64.4407 116.082 64.4837 116.087C64.5674 116.083 64.6495 116.061 64.724 116.023C64.7984 115.985 64.8636 115.93 64.9148 115.864C65.2076 115.54 65.6176 114.594 65.1374 111.881C64.9569 110.882 64.6078 110.201 64.1228 109.908C64.0001 109.832 63.8631 109.78 63.7204 109.758C63.5775 109.736 63.4315 109.742 63.2911 109.777C63.2529 109.79 63.2121 109.796 63.1717 109.792C63.1312 109.788 63.092 109.776 63.0568 109.756C63.022 109.737 62.9912 109.712 62.9661 109.681C62.9412 109.651 62.9227 109.616 62.9116 109.578C62.7547 108.997 62.4758 108.598 62.0845 108.392C61.6781 108.205 61.2168 108.174 60.7889 108.305C60.7251 108.327 60.6558 108.326 60.5927 108.303C60.5294 108.279 60.4763 108.235 60.4422 108.177C60.1189 107.631 59.7792 107.361 59.4348 107.375C58.7319 107.401 58.029 108.53 57.7948 108.964C57.7658 109.021 57.7187 109.068 57.6606 109.096C57.6027 109.125 57.5371 109.133 57.4737 109.121C57.411 109.107 57.3543 109.073 57.3122 109.025C57.2699 108.976 57.2445 108.915 57.2394 108.851C57.216 108.465 57.0052 105.044 57.2887 104.287C57.4128 103.955 57.9259 103.622 58.8982 103.013C60.0064 102.31 61.8573 101.157 61.5199 100.48C61.5035 100.45 61.459 100.361 61.2365 100.33C59.7557 100.122 55.3043 102.673 54.524 103.526C53.7438 104.379 52.0851 111.637 52.2983 113.337C52.474 114.727 53.4463 124.47 53.8586 128.595C53.9196 129.054 53.9523 129.394 53.9734 129.609Z" fill="#313131"/>
<path id="Vector_65" d="M56.4476 115.724C56.4011 115.722 56.3553 115.71 56.3142 115.688C56.2729 115.666 56.2375 115.636 56.2106 115.597C56.1837 115.559 56.1661 115.515 56.1592 115.469C56.1524 115.423 56.1565 115.376 56.1712 115.332C56.3141 114.931 56.382 114.139 56.4594 113.223C56.5835 111.785 56.7382 109.992 57.2793 108.732C57.3105 108.66 57.3687 108.604 57.4411 108.576C57.5137 108.547 57.5945 108.548 57.666 108.58C57.7374 108.611 57.7936 108.669 57.8222 108.741C57.8507 108.814 57.8493 108.895 57.8182 108.966C57.3122 110.137 57.1645 111.878 57.0451 113.277C56.9631 114.233 56.8905 115.057 56.7241 115.528C56.7041 115.585 56.6667 115.636 56.6171 115.67C56.5675 115.705 56.5082 115.724 56.4476 115.724Z" fill="#313131"/>
<path id="Vector_66" d="M63.8468 119.668C63.7789 119.669 63.713 119.646 63.6603 119.603C63.6077 119.56 63.5717 119.501 63.5586 119.434C63.336 118.18 62.6589 117.384 62.0028 116.622C61.672 116.261 61.3763 115.868 61.1197 115.451C60.7447 114.788 60.733 113.272 60.719 111.669C60.7072 110.264 60.6956 108.818 60.4261 108.174C60.3951 108.102 60.3938 108.021 60.4225 107.948C60.4513 107.875 60.5078 107.817 60.5796 107.786C60.6513 107.755 60.7326 107.754 60.8052 107.782C60.878 107.811 60.9363 107.868 60.9673 107.939C61.2789 108.689 61.2907 110.13 61.3047 111.656C61.3164 113.044 61.3281 114.621 61.6303 115.154C61.8695 115.54 62.144 115.904 62.4504 116.24C63.1227 117.03 63.8866 117.927 64.1349 119.337C64.1486 119.413 64.1316 119.492 64.0876 119.555C64.0437 119.618 63.9764 119.661 63.9007 119.675C63.8824 119.675 63.8643 119.673 63.8468 119.668Z" fill="#313131"/>
<path id="Vector_67" d="M62.8086 115.67C62.5767 115.667 62.3485 115.61 62.1433 115.503C61.2249 115.034 60.7844 113.652 60.768 113.593C60.7499 113.521 60.7602 113.445 60.7966 113.379C60.8331 113.314 60.893 113.266 60.9641 113.243C61.0353 113.221 61.1123 113.227 61.1795 113.258C61.2466 113.291 61.2989 113.348 61.3255 113.418C61.3255 113.438 61.9652 115.393 63.0898 115.039C63.6802 114.852 63.4763 112.065 62.9188 109.578C62.9017 109.502 62.9154 109.422 62.9569 109.357C62.9985 109.291 63.0643 109.244 63.1402 109.227C63.216 109.21 63.2955 109.224 63.3611 109.265C63.4268 109.307 63.4734 109.373 63.4904 109.449C63.7903 110.782 64.6619 115.158 63.2562 115.596C63.1115 115.643 62.9606 115.667 62.8086 115.67Z" fill="#313131"/>
<path id="Vector_68" d="M64.4535 116.678C64.4379 116.681 64.4221 116.681 64.4066 116.678C63.4694 116.529 63.1789 115.222 63.1672 115.165C63.1563 115.126 63.1536 115.087 63.1588 115.046C63.1642 115.007 63.1777 114.968 63.1984 114.934C63.2191 114.9 63.2466 114.87 63.2792 114.847C63.3118 114.824 63.3489 114.808 63.3881 114.799C63.4272 114.791 63.4677 114.79 63.507 114.799C63.5463 114.807 63.5835 114.822 63.6163 114.845C63.6492 114.868 63.6771 114.898 63.6982 114.932C63.7192 114.966 63.7331 115.003 63.7389 115.043C63.7975 115.315 64.0458 116.029 64.4979 116.102C64.5355 116.108 64.5712 116.123 64.6033 116.143C64.6353 116.163 64.663 116.19 64.6848 116.222C64.7066 116.252 64.722 116.287 64.7302 116.325C64.7383 116.362 64.739 116.4 64.7322 116.438C64.7205 116.504 64.6864 116.564 64.6357 116.608C64.5848 116.652 64.5205 116.676 64.4535 116.678Z" fill="#313131"/>
<path id="Vector_69" d="M47.9758 132.995L13.6946 145.499V49.4121L47.383 51.359L47.9758 132.995Z" fill="white"/>
<path id="Vector_70" d="M13.6922 145.792C13.6329 145.792 13.5747 145.775 13.526 145.74C13.488 145.713 13.4567 145.679 13.4348 145.638C13.4128 145.597 13.4006 145.552 13.3994 145.506V49.4122C13.3999 49.3721 13.4084 49.3326 13.4245 49.2959C13.4407 49.2594 13.4639 49.2263 13.4931 49.1989C13.5219 49.1712 13.5561 49.15 13.5937 49.1362C13.6312 49.1225 13.6712 49.1167 13.711 49.1192L47.4017 51.0662C47.4766 51.0698 47.5471 51.1019 47.599 51.1559C47.6508 51.21 47.68 51.2818 47.6806 51.3567L48.2734 132.993C48.2745 133.053 48.2566 133.112 48.2221 133.163C48.1876 133.212 48.1384 133.251 48.0812 133.272L13.793 145.776C13.7606 145.787 13.7266 145.792 13.6922 145.792ZM13.9852 49.7167V145.072L47.6806 132.791L47.0901 51.6355L13.9852 49.7167Z" fill="#313131"/>
<path id="Vector_71" d="M31.8803 96.7809C31.8028 96.7803 31.7286 96.7492 31.6738 96.6945C31.619 96.6396 31.588 96.5655 31.5873 96.488C31.5733 87.742 33.6632 81.1842 34.2535 79.5068L29.1742 79.7247C29.0965 79.7281 29.0207 79.7005 28.9633 79.6481C28.906 79.5955 28.8718 79.5224 28.8684 79.4447C28.865 79.367 28.8926 79.2911 28.9451 79.2338C28.9976 79.1764 29.0707 79.1423 29.1484 79.1389L34.6659 78.9046C34.7148 78.9024 34.7635 78.9124 34.8075 78.9338C34.8516 78.9552 34.8895 78.9872 34.918 79.0271C34.9464 79.0669 34.9644 79.1133 34.9703 79.1619C34.9762 79.2105 34.9698 79.2598 34.9518 79.3053C34.9237 79.3755 32.1567 86.4769 32.1731 96.4903C32.1734 96.5288 32.166 96.5667 32.1517 96.6023C32.1372 96.6377 32.1158 96.6701 32.0888 96.6973C32.0618 96.7246 32.0296 96.7462 31.9943 96.7609C31.9588 96.7757 31.9209 96.7833 31.8826 96.7833L31.8803 96.7809Z" fill="#313131"/>
<path id="Vector_72" d="M30.4861 88.2998C30.4124 88.2973 30.3424 88.2671 30.29 88.2153C30.2375 88.1634 30.2067 88.0937 30.2034 88.02C30.2001 87.9463 30.2248 87.8742 30.2725 87.8179C30.3201 87.7616 30.3871 87.7253 30.4603 87.7163L34.6541 87.3391C34.7308 87.3336 34.8066 87.3583 34.8651 87.4082C34.9237 87.458 34.9603 87.5289 34.9671 87.6055C34.9739 87.6821 34.9503 87.7583 34.9013 87.8175C34.8524 87.8769 34.7821 87.9146 34.7056 87.9226L30.5119 88.2998H30.4861Z" fill="#313131"/>
<path id="Vector_73" d="M18.4907 107.729C18.2331 107.726 17.9845 107.633 17.7878 107.466C17.3451 107.103 17.085 106.407 17.085 105.604C17.085 104.304 17.7504 103.163 18.6032 103.005C18.7643 102.977 18.93 102.984 19.0877 103.028C19.2455 103.072 19.3914 103.151 19.5145 103.259C19.9527 103.622 20.2174 104.315 20.2174 105.112C20.2174 106.398 19.5614 107.537 18.7203 107.708C18.6446 107.722 18.5677 107.729 18.4907 107.729ZM18.7906 103.575C18.761 103.572 18.7312 103.572 18.7016 103.575C18.2096 103.666 17.6613 104.512 17.6637 105.594C17.6637 106.215 17.8534 106.766 18.158 107C18.2161 107.053 18.2858 107.092 18.3615 107.113C18.4371 107.134 18.5167 107.137 18.5938 107.122C19.0929 107.021 19.6246 106.185 19.6223 105.102C19.6223 104.486 19.4349 103.947 19.1326 103.697C19.0365 103.617 18.9154 103.574 18.7906 103.575Z" fill="#313131"/>
<path id="Vector_74" d="M27.7402 105.866C27.5033 105.866 27.274 105.783 27.0912 105.632C26.6671 105.285 26.4117 104.606 26.4094 103.816C26.4094 102.565 27.0256 101.474 27.8151 101.326C27.9636 101.299 28.1162 101.306 28.2614 101.347C28.4067 101.387 28.5409 101.46 28.654 101.56C29.0733 101.909 29.3263 102.584 29.3287 103.367C29.3287 104.604 28.7219 105.696 27.9369 105.855C27.872 105.865 27.806 105.869 27.7402 105.866ZM28.0003 101.884C27.9753 101.881 27.9502 101.881 27.9253 101.884C27.4825 101.966 26.9881 102.772 26.9881 103.798C26.9881 104.405 27.1685 104.925 27.4567 105.159C27.5053 105.203 27.5637 105.236 27.6271 105.254C27.6907 105.272 27.7574 105.275 27.8221 105.262C28.2603 105.173 28.7593 104.367 28.743 103.348C28.743 102.748 28.5625 102.228 28.2743 101.991C28.198 101.925 28.1011 101.888 28.0003 101.886V101.884Z" fill="#313131"/>
<path id="Vector_75" d="M36.2541 104.151C36.032 104.147 35.8185 104.064 35.6519 103.917C35.2443 103.584 34.9983 102.924 34.9937 102.15C34.9937 100.944 35.5653 99.8918 36.308 99.756C36.4456 99.7317 36.5867 99.7384 36.7213 99.7757C36.8559 99.813 36.9804 99.8799 37.0858 99.9715C37.4889 100.307 37.7325 100.965 37.7348 101.731C37.7348 102.926 37.1726 103.975 36.4369 104.126C36.3769 104.14 36.3157 104.148 36.2541 104.151ZM36.4743 100.332H36.4134C36.0175 100.405 35.5747 101.169 35.5794 102.146C35.5794 102.731 35.7551 103.247 36.0221 103.462C36.0618 103.499 36.1096 103.527 36.1617 103.542C36.2139 103.557 36.2687 103.559 36.3221 103.549C36.718 103.469 37.1561 102.706 37.1491 101.736C37.1491 101.157 36.9757 100.642 36.7109 100.424C36.6472 100.362 36.5629 100.326 36.4743 100.323V100.332Z" fill="#313131"/>
<path id="Vector_76" d="M44.1124 102.567C43.9069 102.564 43.7089 102.49 43.5524 102.357C43.1612 102.038 42.9245 101.394 42.9199 100.632C42.9199 99.4467 43.44 98.4557 44.1499 98.3268C44.2776 98.3041 44.4087 98.3105 44.5336 98.3453C44.6586 98.3802 44.7741 98.4427 44.8715 98.5283C45.2581 98.8492 45.4924 99.4912 45.4994 100.246C45.4994 101.417 44.9839 102.408 44.2835 102.549C44.2272 102.561 44.1699 102.567 44.1124 102.567ZM44.3021 98.8984H44.2553C43.8945 98.964 43.4985 99.7162 43.5056 100.623C43.5056 101.326 43.7399 101.743 43.9226 101.897C43.9532 101.927 43.9904 101.949 44.0312 101.962C44.0718 101.974 44.1149 101.977 44.1569 101.97C44.5131 101.897 44.9066 101.171 44.9019 100.243C44.9019 99.5568 44.6677 99.1304 44.4873 98.9758C44.4363 98.9295 44.3709 98.9023 44.3021 98.8984Z" fill="#313131"/>
<path id="Vector_77" d="M18.3267 121.175C18.0856 121.173 17.8523 121.09 17.6635 120.941C17.2161 120.596 16.9607 119.909 16.9607 119.101C16.9607 117.801 17.6214 116.622 18.4671 116.417C18.6288 116.375 18.7978 116.373 18.9605 116.409C19.1232 116.446 19.2752 116.519 19.4043 116.625C19.8449 116.969 20.1072 117.654 20.1072 118.455C20.1072 119.739 19.4559 120.917 18.6218 121.135C18.5259 121.163 18.4264 121.176 18.3267 121.175ZM18.7179 116.958C18.6769 116.958 18.6361 116.962 18.5961 116.971C18.083 117.096 17.5347 117.977 17.5371 119.081C17.5371 119.699 17.7222 120.223 18.0197 120.456C18.0796 120.505 18.1504 120.539 18.2262 120.556C18.3021 120.571 18.3807 120.57 18.4555 120.549C18.9639 120.415 19.5075 119.535 19.5051 118.441C19.5051 117.829 19.32 117.305 19.0365 117.072C18.9474 116.998 18.8344 116.957 18.7179 116.958Z" fill="#313131"/>
<path id="Vector_78" d="M27.6185 118.734C27.3957 118.732 27.1798 118.656 27.0046 118.517C26.5781 118.187 26.3204 117.52 26.3181 116.725C26.3181 115.476 26.9297 114.347 27.7238 114.148C27.8715 114.112 28.0256 114.111 28.1739 114.144C28.3223 114.178 28.4609 114.245 28.579 114.34C29.0031 114.671 29.2561 115.338 29.2585 116.124C29.2585 117.361 28.6563 118.49 27.8785 118.701C27.7935 118.723 27.7061 118.734 27.6185 118.734ZM27.9534 114.712C27.9203 114.712 27.8871 114.716 27.8551 114.724C27.4029 114.834 26.9014 115.683 26.9039 116.723C26.9039 117.445 27.1381 117.894 27.3724 118.054C27.4218 118.095 27.4803 118.123 27.5431 118.138C27.6058 118.152 27.6711 118.15 27.7333 118.133C28.1807 118.016 28.6703 117.166 28.6703 116.133C28.6703 115.418 28.4361 114.98 28.2158 114.809C28.1427 114.746 28.0496 114.712 27.9534 114.712Z" fill="#313131"/>
<path id="Vector_79" d="M39.5203 113.465C39.5368 116.479 38.178 119.31 36.4583 119.791C34.7386 120.27 33.2579 118.15 33.2438 115.051C33.2297 111.951 34.6496 109.109 36.4044 108.725C38.1592 108.34 39.504 110.456 39.5203 113.465Z" fill="white"/>
<path id="Vector_80" d="M35.9659 120.153C35.4969 120.15 35.0428 119.989 34.6749 119.699C33.6089 118.893 32.9669 117.157 32.9576 115.051C32.9436 111.825 34.4641 108.854 36.3454 108.43C36.6599 108.358 36.9867 108.36 37.3002 108.436C37.6135 108.512 37.9051 108.66 38.1518 108.868C39.185 109.69 39.8082 111.41 39.82 113.465C39.8387 116.651 38.3978 119.556 36.5399 120.072C36.3531 120.124 36.1601 120.152 35.9659 120.153ZM36.8117 108.961C36.6982 108.963 36.5852 108.975 36.4743 108.999C34.8741 109.362 33.5316 112.131 33.5434 115.048C33.5434 116.944 34.1197 118.546 35.0287 119.233C35.2156 119.385 35.4369 119.489 35.6732 119.537C35.9095 119.584 36.1538 119.575 36.3853 119.506C37.9714 119.064 39.2506 116.353 39.2342 113.467C39.2342 111.616 38.6695 110.029 37.7863 109.327C37.5119 109.094 37.1645 108.965 36.8046 108.961H36.8117Z" fill="#FE0000"/>
<path id="Vector_81" d="M36.165 116.489C35.9585 116.487 35.7583 116.417 35.5957 116.29C35.1857 115.974 34.9397 115.322 34.9351 114.545C34.9351 113.337 35.502 112.255 36.2377 112.075C36.3747 112.042 36.5172 112.042 36.6545 112.073C36.7918 112.105 36.9201 112.166 37.0296 112.255C37.4349 112.571 37.6808 113.223 37.6832 113.994C37.6832 115.187 37.1256 116.269 36.3994 116.459C36.3229 116.479 36.2442 116.489 36.165 116.489ZM36.4533 112.635C36.4276 112.632 36.4016 112.632 36.3759 112.635C35.9683 112.736 35.5161 113.537 35.5207 114.53C35.5207 115.111 35.6941 115.617 35.9542 115.817C35.9944 115.851 36.0421 115.875 36.0935 115.887C36.1449 115.898 36.1983 115.898 36.2493 115.885C36.6546 115.777 37.1022 114.973 37.0975 113.987C37.0975 113.411 36.9265 112.909 36.6687 112.707C36.6061 112.662 36.5303 112.639 36.4533 112.642V112.635Z" fill="#313131"/>
<path id="Vector_82" d="M44.0537 114.435C43.8613 114.433 43.6751 114.366 43.5242 114.247C43.1282 113.944 42.8916 113.31 42.887 112.544C42.887 111.372 43.4024 110.341 44.1029 110.17C44.2304 110.139 44.3635 110.138 44.4914 110.167C44.6195 110.195 44.7391 110.253 44.8409 110.337C45.2298 110.641 45.4665 111.274 45.4712 112.036C45.4712 113.207 44.9627 114.223 44.2693 114.406C44.1989 114.425 44.1265 114.435 44.0537 114.435ZM44.3044 110.731C44.2833 110.727 44.2622 110.727 44.2411 110.731C43.8733 110.82 43.4656 111.58 43.4727 112.53C43.4727 113.219 43.7069 113.63 43.8803 113.774C43.912 113.8 43.9499 113.82 43.9906 113.83C44.0313 113.84 44.0739 113.84 44.1146 113.83C44.4824 113.734 44.8854 112.97 44.8784 112.028C44.8784 111.344 44.6581 110.934 44.4731 110.789C44.4248 110.752 44.3655 110.731 44.3044 110.731Z" fill="#313131"/>
<path id="Vector_83" d="M18.2938 134.649C18.0707 134.649 17.8536 134.577 17.6753 134.443C17.2278 134.119 16.9607 133.44 16.9607 132.632C16.9607 131.333 17.6167 130.115 18.4555 129.861C18.6136 129.811 18.7808 129.801 18.9438 129.83C19.1067 129.858 19.2604 129.924 19.3927 130.024C19.8331 130.352 20.0955 131.024 20.0955 131.828C20.0955 133.112 19.4489 134.327 18.6195 134.595C18.5143 134.629 18.4045 134.648 18.2938 134.649ZM18.7764 130.396C18.7247 130.397 18.6734 130.406 18.6242 130.422C18.1041 130.579 17.5441 131.505 17.5464 132.632C17.5464 133.245 17.7269 133.759 18.015 133.97C18.0754 134.017 18.147 134.048 18.2228 134.06C18.2988 134.072 18.3764 134.064 18.4485 134.038C18.9662 133.871 19.5191 132.943 19.5191 131.831C19.5191 131.219 19.3364 130.708 19.0506 130.495C18.9727 130.432 18.8762 130.398 18.7764 130.396Z" fill="#313131"/>
<path id="Vector_84" d="M27.6162 131.647C27.4095 131.646 27.2085 131.58 27.0421 131.457C26.6134 131.146 26.358 130.485 26.3557 129.691C26.3557 128.442 26.9601 127.278 27.7403 127.041C27.8871 126.995 28.043 126.984 28.1948 127.01C28.3465 127.036 28.4896 127.1 28.6119 127.193C29.036 127.507 29.2914 128.164 29.2937 128.953C29.2937 130.187 28.6963 131.35 27.9254 131.598C27.8255 131.631 27.7211 131.647 27.6162 131.647ZM28.0332 127.582C27.9911 127.583 27.9494 127.59 27.909 127.602C27.4404 127.742 26.9367 128.632 26.9415 129.689C26.9415 130.28 27.1172 130.788 27.3865 130.984C27.4373 131.023 27.4969 131.048 27.5598 131.058C27.6228 131.068 27.6872 131.062 27.7474 131.04C28.2159 130.891 28.7103 130.016 28.7079 128.955C28.7079 128.368 28.5322 127.861 28.2652 127.664C28.1986 127.613 28.1172 127.584 28.0332 127.582Z" fill="#313131"/>
<path id="Vector_85" d="M36.2001 128.888C36.0083 128.887 35.8216 128.825 35.6682 128.709C35.2559 128.412 35.0075 127.772 35.0029 126.987C35.0029 125.783 35.5652 124.668 36.2915 124.447C36.4276 124.405 36.5721 124.396 36.7126 124.42C36.8533 124.444 36.986 124.502 37.0997 124.588C37.5075 124.891 37.7534 125.525 37.7581 126.305C37.7581 127.496 37.2052 128.611 36.4859 128.843C36.3936 128.873 36.2971 128.888 36.2001 128.888ZM36.561 124.992C36.5276 124.993 36.4945 124.998 36.4625 125.008C36.0455 125.134 35.584 125.977 35.5887 126.985C35.5887 127.688 35.8229 128.096 36.0103 128.236C36.0513 128.269 36.0999 128.291 36.1516 128.3C36.2032 128.307 36.2562 128.303 36.3056 128.285C36.7202 128.152 37.1771 127.306 37.1724 126.308C37.1724 125.605 36.9381 125.202 36.753 125.062C36.6955 125.015 36.6233 124.99 36.5492 124.992H36.561Z" fill="#313131"/>
<path id="Vector_86" d="M44.0983 126.341C43.9193 126.34 43.7453 126.281 43.6015 126.175C43.2056 125.888 42.9666 125.261 42.9619 124.492C42.9619 123.332 43.482 122.259 44.1638 122.054C44.2907 122.013 44.4253 122.004 44.5563 122.028C44.6871 122.052 44.8106 122.105 44.9159 122.187C45.3095 122.475 45.5461 123.101 45.5508 123.862C45.5508 125.033 45.0471 126.078 44.363 126.299C44.2775 126.326 44.1882 126.341 44.0983 126.341ZM44.4146 122.593C44.3881 122.589 44.3614 122.589 44.3349 122.593C43.9577 122.707 43.5406 123.506 43.5477 124.466C43.5477 125.151 43.7632 125.546 43.9436 125.678C43.9762 125.703 44.0148 125.721 44.0557 125.727C44.0966 125.735 44.1387 125.731 44.1779 125.717C44.5528 125.595 44.9674 124.796 44.9604 123.844C44.9604 123.163 44.7448 122.768 44.5645 122.634C44.519 122.608 44.4667 122.597 44.4146 122.601V122.593Z" fill="#313131"/>
<path id="Vector_87" d="M13.6921 49.4122C13.6921 49.4122 27.3347 75.3292 40.9048 79.612C54.4748 83.8948 57.2722 72.9769 68.5837 76.8755C79.8952 80.7741 84.4215 87.0811 84.4215 87.0811C84.4215 87.0811 99.8636 78.2999 110.001 79.612C110.001 79.612 107.972 76.8755 106.253 75.4721H110.001C110.001 75.4721 102.202 64.7112 81.6124 64.2426C81.6124 64.2426 97.8346 59.2897 109.064 44.7451L87.3854 35.3853C87.3854 35.3853 75.3569 57.952 58.9943 61.8997C49.9507 64.0834 47.3829 51.3568 47.3829 51.3568L13.6921 49.4122Z" fill="white"/>
<path id="Vector_88" d="M84.4217 87.3738C84.3759 87.3731 84.3309 87.3617 84.2903 87.3406C84.2495 87.3194 84.2144 87.2891 84.1874 87.252C84.143 87.1888 79.5743 80.9707 68.4901 77.1518C63.1459 75.3103 59.7347 76.8449 56.122 78.4685C52.1063 80.2749 47.9523 82.1422 40.8159 79.8906C35.1274 78.096 28.7875 72.4426 21.9744 63.0711C18.8409 58.7486 15.9885 54.2292 13.4345 49.5409C13.4086 49.496 13.395 49.445 13.395 49.3932C13.395 49.3414 13.4086 49.2905 13.4345 49.2456C13.4633 49.2024 13.5029 49.1673 13.5492 49.1439C13.5956 49.1205 13.6473 49.1095 13.6993 49.1122L47.3901 51.0591C47.4543 51.0637 47.5152 51.089 47.5638 51.1313C47.6124 51.1735 47.6459 51.2304 47.6595 51.2934C47.6736 51.3613 49.0793 58.1041 53.266 60.7726C54.9295 61.8316 56.8295 62.1128 58.9147 61.6115C74.9588 57.7362 86.9942 35.4648 87.1137 35.2422C87.1483 35.1772 87.206 35.1277 87.2755 35.1033C87.345 35.0791 87.421 35.0817 87.4885 35.111L109.17 44.4685C109.211 44.4861 109.247 44.5131 109.276 44.5473C109.305 44.5814 109.326 44.6219 109.336 44.6654C109.348 44.7082 109.349 44.7533 109.34 44.7968C109.331 44.8403 109.312 44.8811 109.284 44.916C100.1 56.8343 87.4253 62.3916 83.1637 64.0082C93.0178 64.4955 99.7255 67.3843 103.68 69.7858C108.202 72.534 110.158 75.1931 110.24 75.3056C110.272 75.349 110.292 75.4006 110.296 75.4546C110.301 75.5084 110.289 75.5624 110.263 75.6102C110.239 75.6583 110.202 75.6985 110.156 75.7267C110.111 75.7548 110.057 75.7697 110.003 75.7696H107.033C108.192 76.9084 109.263 78.1343 110.236 79.4361C110.27 79.4823 110.29 79.5375 110.293 79.5949C110.296 79.6525 110.283 79.7096 110.255 79.7595C110.225 79.8085 110.181 79.8481 110.131 79.8735C110.079 79.8988 110.021 79.9088 109.964 79.9024C100.039 78.609 84.7193 87.2473 84.567 87.3364C84.5226 87.3611 84.4725 87.3739 84.4217 87.3738ZM63.8184 75.7227C65.4767 75.7404 67.1203 76.0373 68.6798 76.6012C78.7964 80.0874 83.59 85.5721 84.4967 86.7038C86.453 85.619 99.8075 78.4287 109.352 79.2487C108.675 78.3865 107.284 76.6926 106.072 75.7015C106.026 75.663 105.992 75.6112 105.976 75.553C105.96 75.4948 105.961 75.433 105.981 75.3759C106.001 75.3189 106.039 75.2696 106.088 75.2347C106.138 75.1999 106.197 75.1813 106.257 75.1814H109.385C108.621 74.2982 106.681 72.288 103.345 70.2613C99.2523 67.7803 92.1579 64.772 81.6079 64.5331C81.5384 64.531 81.4719 64.5044 81.42 64.4582C81.3682 64.4119 81.3343 64.3488 81.3244 64.28C81.3142 64.2109 81.3292 64.1405 81.3666 64.0815C81.404 64.0226 81.4614 63.979 81.5282 63.9591C81.6876 63.9098 97.57 58.9335 108.603 44.8621L87.5167 35.7577C85.1969 39.8404 82.5319 43.7172 79.5508 47.3456C74.9143 52.9685 67.6022 60.1237 59.0623 62.1855C56.8179 62.7267 54.7631 62.4197 52.9708 61.2694C48.9622 58.7157 47.4369 52.8701 47.1535 51.6354L14.2007 49.7353C16.1102 53.2239 28.6821 75.4462 40.9917 79.3331C47.9148 81.5166 51.9657 79.6961 55.883 77.9273C58.3923 76.8074 60.8008 75.7227 63.8184 75.7227Z" fill="#313131"/>
<path id="Vector_89" d="M84.3983 79.905C84.3446 79.9051 84.292 79.8905 84.246 79.8628C68.2792 70.182 62.429 71.0536 54.3296 72.2554C51.23 72.724 47.7156 73.2395 43.2079 73.1926C34.8251 73.1082 27.1732 66.6747 22.2273 61.2931C18.9257 57.6744 15.9826 53.7442 13.4392 49.5576C13.3966 49.4938 13.3808 49.4159 13.395 49.3406C13.4092 49.2653 13.4524 49.1986 13.5152 49.1547C13.578 49.1109 13.6556 49.0934 13.7312 49.1061C13.8067 49.1188 13.8743 49.1606 13.9195 49.2225C13.964 49.2787 18.5818 54.7752 29.1787 59.3133C38.9673 63.5047 56.0001 67.7103 81.5704 63.9499C81.6092 63.9423 81.6491 63.9427 81.6879 63.951C81.7265 63.9592 81.7632 63.9752 81.7954 63.9981C81.8277 64.0209 81.8551 64.05 81.8759 64.0837C81.8966 64.1174 81.9103 64.1549 81.9162 64.194C81.9221 64.233 81.9199 64.273 81.9099 64.3113C81.8999 64.3495 81.8824 64.3854 81.8581 64.4166C81.834 64.4479 81.8037 64.4739 81.7691 64.4931C81.7345 64.5125 81.6964 64.5244 81.6571 64.5286C70.2987 66.1991 59.6504 66.4568 50.007 65.2948C42.2755 64.3576 35.1859 62.5278 28.9069 59.8334C21.9837 56.8627 17.5791 53.4796 15.3182 51.4412C17.5179 54.7821 19.9752 57.9461 22.6679 60.9042C27.5341 66.1991 35.0477 72.5249 43.2174 72.6069C47.6688 72.6514 51.1668 72.1383 54.2453 71.6697C62.4454 70.4515 68.3752 69.5611 84.4264 79.277C85.6446 78.7874 94.6297 75.341 106.255 75.1723C106.332 75.1723 106.407 75.2024 106.462 75.2562C106.518 75.3099 106.55 75.3833 106.553 75.4605C106.553 75.4989 106.546 75.5371 106.532 75.5729C106.518 75.6087 106.497 75.6414 106.47 75.6689C106.443 75.6966 106.411 75.7187 106.376 75.734C106.341 75.7493 106.303 75.7574 106.264 75.7581C93.9244 75.9361 84.6068 79.8347 84.5154 79.8745C84.4785 79.8918 84.4388 79.9021 84.3983 79.905Z" fill="#313131"/>
<path id="Vector_90" d="M13.6921 49.4121C13.6921 49.4121 31.9316 71.5477 81.6124 64.2425C81.6124 64.2425 62.0282 68.9588 44.2129 65.3578C26.3977 61.7568 13.6921 49.4121 13.6921 49.4121Z" fill="#313131"/>
<path id="Vector_91" d="M84.3981 79.9048C84.3446 79.9046 84.292 79.8901 84.2459 79.8626C68.2791 70.1818 62.4289 71.0533 54.3295 72.2552C51.2299 72.7238 47.7179 73.2392 43.2079 73.1924C43.1302 73.1924 43.0557 73.1615 43.0008 73.1067C42.9459 73.0517 42.915 72.9773 42.915 72.8996C42.915 72.8219 42.9459 72.7474 43.0008 72.6925C43.0557 72.6376 43.1302 72.6067 43.2079 72.6067C47.6734 72.6512 51.1573 72.1381 54.2358 71.6696C62.457 70.4489 68.3962 69.5609 84.5434 79.3542C84.5764 79.3741 84.6051 79.4004 84.6279 79.4315C84.6507 79.4626 84.6671 79.4978 84.6762 79.5353C84.6855 79.5727 84.6871 79.6115 84.6812 79.6496C84.6752 79.6877 84.6619 79.7243 84.6419 79.7572C84.6169 79.8002 84.5814 79.8362 84.5388 79.862C84.4962 79.8878 84.4478 79.9025 84.3981 79.9048Z" fill="#313131"/>
<path id="Vector_92" d="M84.3981 79.9048C84.3306 79.9048 84.2652 79.8815 84.2129 79.8388C84.1606 79.7961 84.1246 79.7366 84.1111 79.6706C84.0976 79.6044 84.1074 79.5357 84.1388 79.4759C84.1702 79.4161 84.2212 79.369 84.2833 79.3425C84.3771 79.3027 93.8001 75.3596 106.253 75.1792C106.33 75.1792 106.404 75.2093 106.46 75.263C106.515 75.3168 106.548 75.3901 106.55 75.4674C106.551 75.5058 106.544 75.544 106.53 75.5798C106.516 75.6156 106.494 75.6483 106.468 75.6758C106.441 75.7035 106.409 75.7255 106.374 75.7409C106.338 75.7562 106.3 75.7643 106.262 75.7649C93.929 75.943 84.6043 79.8416 84.5129 79.8814C84.4766 79.897 84.4375 79.905 84.3981 79.9048Z" fill="#313131"/>
<path id="Vector_93" d="M47.4814 64.1537C40.8674 64.1537 36.2215 62.4808 36.1489 62.455C36.1126 62.4418 36.0794 62.4214 36.0511 62.3952C36.0228 62.3691 35.9999 62.3375 35.9838 62.3025C35.9677 62.2675 35.9587 62.2296 35.9572 62.191C35.9558 62.1525 35.962 62.114 35.9755 62.0778C36.0033 62.0055 36.0584 61.9469 36.1289 61.9145C36.1993 61.8821 36.2796 61.8785 36.3527 61.9045C36.4652 61.9467 47.9523 66.0701 60.4985 61.1759C60.5709 61.1476 60.6516 61.1492 60.7227 61.1804C60.7939 61.2117 60.8498 61.2698 60.878 61.3422C60.9063 61.4146 60.9047 61.4953 60.8735 61.5664C60.8422 61.6376 60.7841 61.6935 60.7117 61.7218C56.4913 63.3486 52.0044 64.1734 47.4814 64.1537Z" fill="#313131"/>
<path id="Vector_94" d="M108.471 57.1532C103.741 56.8416 99.7511 59.2617 97.6074 60.9205C97.1177 58.9431 96.436 56.5112 95.4122 54.7611C94.1657 52.608 94.557 51.6614 93.3925 49.4123C91.8252 46.3876 87.929 44.3727 88.6108 43.1287C90.3515 39.9564 94.5476 46.3385 96.5766 44.3516C98.3291 42.6367 90.0423 36.4655 90.0423 36.4655C90.6045 35.7766 92.8537 35.8798 92.8537 35.8798C93.8033 35.2373 94.9487 34.9495 96.0893 35.0667C97.8136 34.5631 100.541 34.3498 104.146 37.6299C107.752 40.9099 107.38 48.2994 107.38 50.3823C107.391 51.8255 108.054 55.1946 108.471 57.1532Z" fill="white"/>
<path id="Vector_95" d="M97.6076 61.2131C97.5748 61.2136 97.5423 61.208 97.5115 61.1967C97.4655 61.1808 97.4243 61.1535 97.3915 61.1175C97.3587 61.0815 97.3356 61.0379 97.3242 60.9906C96.8883 59.2333 96.1902 56.6889 95.1593 54.899C94.6042 53.948 94.1883 52.9224 93.9246 51.8533C93.7146 51.0538 93.4468 50.2709 93.1233 49.5104C92.451 47.9477 91.1061 46.8114 90.026 45.8976C88.8194 44.8784 87.7769 43.9999 88.3556 42.969C88.4647 42.7483 88.6182 42.5524 88.8064 42.3936C88.9947 42.2346 89.2136 42.1163 89.4497 42.046C90.4595 41.7741 91.7036 42.5145 92.9077 43.2174C94.2901 44.0374 95.5974 44.8105 96.387 44.11C96.4459 44.0579 96.4915 43.9924 96.5196 43.919C96.5478 43.8456 96.5578 43.7664 96.5487 43.6883C96.4783 41.9803 91.7036 38.0489 89.8714 36.6783C89.8397 36.6545 89.8132 36.6245 89.7934 36.5901C89.7736 36.5558 89.7608 36.5178 89.7561 36.4785C89.7513 36.4391 89.7545 36.3991 89.7653 36.3611C89.7763 36.323 89.7949 36.2874 89.8199 36.2567C90.4056 35.5538 92.2939 35.5538 92.7836 35.5538C93.7606 34.9217 94.921 34.6347 96.08 34.7385C98.8399 33.9583 101.546 34.8252 104.355 37.3859C107.79 40.516 107.715 47.2729 107.687 49.8173C107.687 50.0211 107.687 50.2015 107.687 50.3539C107.687 51.8392 108.436 55.5409 108.76 57.0639C108.769 57.1082 108.769 57.1541 108.757 57.1981C108.746 57.242 108.725 57.2826 108.695 57.3167C108.665 57.351 108.627 57.3776 108.585 57.3948C108.543 57.4119 108.498 57.4189 108.453 57.4153C103.741 57.106 99.749 59.6059 97.788 61.1241C97.7403 61.1742 97.6764 61.2057 97.6076 61.2131ZM89.9112 42.5895C89.8068 42.5879 89.7027 42.6013 89.6019 42.6293C89.4417 42.6797 89.2935 42.7628 89.1669 42.8732C89.0402 42.9837 88.9379 43.1192 88.8662 43.2712C88.5406 43.8523 89.2036 44.4427 90.4032 45.4665C91.5326 46.4201 92.9358 47.6056 93.6599 49.2949C93.9935 50.0791 94.2708 50.8865 94.4893 51.7104C94.7366 52.7304 95.1313 53.7091 95.6607 54.6155C96.6447 56.3164 97.3288 58.6593 97.7693 60.4189C99.8404 58.8866 103.627 56.6819 108.092 56.8413C107.682 54.8826 107.085 51.7759 107.085 50.3819C107.085 50.2296 107.085 50.0469 107.085 49.8383C107.113 47.3666 107.185 40.7995 103.945 37.8451C99.9833 34.2347 97.1109 35.0711 96.1667 35.3476C96.1235 35.3569 96.0788 35.3569 96.0356 35.3476C94.9729 35.2544 93.9107 35.5299 93.0273 36.1278C92.9757 36.1629 92.9138 36.1795 92.8516 36.1747C92.1745 36.1465 91.078 36.2074 90.5321 36.4698C91.966 37.5687 97.0477 41.6008 97.1344 43.6883C97.1464 43.8535 97.1202 44.0192 97.0581 44.1727C96.996 44.3263 96.8994 44.4636 96.7758 44.5739C95.6654 45.5579 94.1121 44.6372 92.6079 43.7492C91.6497 43.1752 90.6609 42.5895 89.9112 42.5895Z" fill="#313131"/>
<path id="Vector_96" d="M100.798 40.2489C100.753 40.2492 100.709 40.2393 100.668 40.2198C100.628 40.2003 100.592 40.1717 100.564 40.1364C98.7461 37.8334 95.1099 36.2285 92.8538 36.1723C92.8152 36.1713 92.7774 36.1628 92.7423 36.1472C92.707 36.1317 92.6753 36.1094 92.6487 36.0815C92.6222 36.0536 92.6013 36.0208 92.5875 35.9849C92.5737 35.949 92.567 35.9108 92.568 35.8723C92.5688 35.8339 92.5773 35.7959 92.5929 35.7608C92.6085 35.7256 92.6309 35.6939 92.6586 35.6673C92.6865 35.6407 92.7193 35.62 92.7552 35.6061C92.7911 35.5922 92.8294 35.5855 92.8678 35.5865C95.2575 35.6451 99.1046 37.3413 101.023 39.7732C101.047 39.8034 101.065 39.838 101.076 39.875C101.087 39.9121 101.09 39.9508 101.086 39.9891C101.081 40.0275 101.069 40.0645 101.051 40.0982C101.032 40.132 101.007 40.1616 100.977 40.1856C100.926 40.2255 100.863 40.2477 100.798 40.2489Z" fill="#313131"/>
<path id="Vector_97" d="M103.931 39.4455C103.886 39.447 103.842 39.4384 103.801 39.42C103.761 39.4018 103.725 39.3744 103.697 39.34C102.761 38.1941 101.602 37.2502 100.29 36.5656C98.9782 35.8809 97.5411 35.4698 96.0658 35.3571C95.9885 35.3494 95.9173 35.3117 95.8674 35.2522C95.8175 35.1926 95.7929 35.116 95.7987 35.0385C95.8022 35.0002 95.8133 34.9629 95.8312 34.9289C95.8492 34.8949 95.8735 34.8647 95.9032 34.8401C95.9328 34.8155 95.9669 34.797 96.0037 34.7856C96.0404 34.7742 96.079 34.7702 96.1173 34.7737C99.3318 35.0501 102.035 36.4606 104.144 38.9628C104.169 38.9921 104.188 39.026 104.2 39.0627C104.212 39.0993 104.216 39.138 104.213 39.1764C104.21 39.2147 104.199 39.2521 104.181 39.2862C104.163 39.3204 104.139 39.3506 104.109 39.3751C104.059 39.4182 103.996 39.443 103.931 39.4455Z" fill="#313131"/>
<path id="Vector_98" d="M90.457 173.25L91.4388 175.799C91.4388 175.799 96.9867 162.585 98.0269 157.328C98.0269 157.328 91.6543 171.95 90.457 173.25Z" fill="#313131"/>
<path id="Vector_99" d="M69.6145 159.863L70.7695 145.061L71.7676 147.574L69.6145 159.863Z" fill="#313131"/>
<path id="Vector_100" d="M108.413 56.8764C106.327 56.9645 104.272 57.4082 102.335 58.1883C100.643 58.8815 99.0529 59.8005 97.6073 60.9202L97.3333 59.8635C97.3333 59.8635 100.496 57.9564 102.408 57.4128C105.332 56.5834 108.413 56.8764 108.413 56.8764Z" fill="#313131"/>
<path id="Vector_101" d="M18.8279 56.8271C18.8279 56.8271 30.1393 72.6744 42.1959 72.8596C54.4187 73.047 57.4035 70.1816 65.1281 71.489C73.6468 72.9322 80.4927 77.3462 80.4927 77.3462C80.4927 77.3462 69.0125 72.7448 65.0648 72.2903C59.976 71.7068 47.3923 74.7948 41.903 74.2208C26.8101 72.637 18.8279 56.8271 18.8279 56.8271Z" fill="#313131"/>
<path id="Vector_102" d="M89.4332 105.358C89.4332 105.358 89.9768 111.295 85.7924 116.205C80.4927 122.421 77.5407 125.624 76.292 129.733C76.292 129.733 78.6349 124.996 81.5119 122.147C83.4097 120.272 85.9424 117.85 87.6315 115.1C90.5273 110.397 89.4332 105.358 89.4332 105.358Z" fill="#313131"/>
</g>
</svg>
