<svg xmlns="http://www.w3.org/2000/svg" width="16" height="18" viewBox="0 0 16 18" fill="none">
  <path d="M7.8297 17.6823C6.80697 17.6823 5.84902 17.488 4.95584 17.0994C4.06266 16.7107 3.28538 16.1857 2.62402 15.5244C1.96266 14.863 1.43766 14.0857 1.04902 13.1925C0.660383 12.2994 0.466064 11.3414 0.466064 10.3187H2.10243C2.10243 11.9141 2.65811 13.2675 3.76947 14.3789C4.88084 15.4903 6.23425 16.0459 7.8297 16.0459C9.42516 16.0459 10.7786 15.4903 11.8899 14.3789C13.0013 13.2675 13.557 11.9141 13.557 10.3187C13.557 8.72322 13.0013 7.36981 11.8899 6.25844C10.7786 5.14708 9.42516 4.5914 7.8297 4.5914H7.70697L8.97516 5.85958L7.8297 7.04594L4.55697 3.77322L7.8297 0.500488L8.97516 1.68685L7.70697 2.95503H7.8297C8.85243 2.95503 9.81038 3.14935 10.7036 3.53799C11.5967 3.92662 12.374 4.45162 13.0354 5.11299C13.6967 5.77435 14.2217 6.55162 14.6104 7.44481C14.999 8.33799 15.1933 9.29594 15.1933 10.3187C15.1933 11.3414 14.999 12.2994 14.6104 13.1925C14.2217 14.0857 13.6967 14.863 13.0354 15.5244C12.374 16.1857 11.5967 16.7107 10.7036 17.0994C9.81038 17.488 8.85243 17.6823 7.8297 17.6823Z" fill="#1C1B1F"/>
</svg>